<svg xmlns="http://www.w3.org/2000/svg" width="399.794" height="402.333" viewBox="0 0 399.794 402.333">
  <g id="_1" data-name="1" transform="translate(-9.499 -6.1)">
    <path id="Trazado_901470" data-name="Trazado 901470" d="M21.632,393.858c-4.091-5.784-3.809-14.671-1.411-21.725,2.257-7.054,6.207-13.261,9.029-20.032,8.182-20.032,1.552-44.014-6.912-62.212-9.593-20.314-15.236-41.051-11.85-65.033,3.527-24.546,16.082-46.835,33.434-59.391,9.593-6.912,20.878-10.862,31.741-8.605,18.057,3.668,37.384,21.725,52.055-2.68,10.016-16.787,5.361-40.487,8.464-61.083,8.182-53.184,60.942-65.457,92.4-35.55,16.787,16.082,27.932,42.6,48.1,50.785,10.016,4.091,23.136,5.079,32.305-1.975,4.514-3.527,8.182-8.605,12.837-11.85,4.937-3.527,10.721-4.655,16.364-5.22,30.612-3.1,50.644,25.393,55.159,61.366,3.386,27.368-5.643,48.951-16.928,71.664-4.937,9.734-10.58,19.186-13.825,30.048-2.116,7.195-2.962,15.095-1.129,22.43,1.975,8.182,6.912,14.812,12.132,20.455,10.3,10.862,20.6,20.173,23.7,37.666,2.962,16.505-1.693,32.023-9.311,45.425-2.821,5.079-5.643,10.016-8.464,15.095Z" transform="translate(0 14.574)" fill="#dedfff"/>
    <g id="Grupo_1106714" data-name="Grupo 1106714" transform="translate(245.229 301.783)">
      <g id="Grupo_1106713" data-name="Grupo 1106713">
        <g id="Grupo_1106712" data-name="Grupo 1106712">
          <g id="Grupo_1106711" data-name="Grupo 1106711">
            <rect id="Rectángulo_404674" data-name="Rectángulo 404674" width="133.594" height="87.04" fill="#9090f6"/>
            <rect id="Rectángulo_404675" data-name="Rectángulo 404675" width="118.64" height="74.062" transform="translate(7.477 6.489)" fill="#fff"/>
          </g>
        </g>
      </g>
      <rect id="Rectángulo_404676" data-name="Rectángulo 404676" width="34.421" height="3.527" transform="translate(18.198 15.377)" fill="#c5c5ff"/>
      <rect id="Rectángulo_404677" data-name="Rectángulo 404677" width="34.421" height="3.527" transform="translate(18.198 24.123)" fill="#c5c5ff"/>
      <rect id="Rectángulo_404678" data-name="Rectángulo 404678" width="34.421" height="3.527" transform="translate(18.198 32.728)" fill="#c5c5ff"/>
      <rect id="Rectángulo_404679" data-name="Rectángulo 404679" width="34.421" height="3.527" transform="translate(18.198 41.475)" fill="#c5c5ff"/>
      <rect id="Rectángulo_404680" data-name="Rectángulo 404680" width="34.421" height="3.527" transform="translate(18.198 50.221)" fill="#c5c5ff"/>
      <rect id="Rectángulo_404681" data-name="Rectángulo 404681" width="34.421" height="3.527" transform="translate(18.198 58.826)" fill="#c5c5ff"/>
      <rect id="Rectángulo_404682" data-name="Rectángulo 404682" width="99.596" height="3.527" transform="translate(18.198 67.714)" fill="#c5c5ff"/>
      <rect id="Rectángulo_404683" data-name="Rectángulo 404683" width="6.207" height="44.437" transform="translate(61.789 18.903)" fill="#c5c5ff"/>
      <rect id="Rectángulo_404684" data-name="Rectángulo 404684" width="6.207" height="31.741" transform="translate(76.742 31.6)" fill="#c5c5ff"/>
      <rect id="Rectángulo_404685" data-name="Rectángulo 404685" width="6.207" height="38.371" transform="translate(91.555 24.828)" fill="#c5c5ff"/>
      <rect id="Rectángulo_404686" data-name="Rectángulo 404686" width="6.207" height="23.418" transform="translate(106.367 39.782)" fill="#c5c5ff"/>
      <rect id="Rectángulo_404687" data-name="Rectángulo 404687" width="6.207" height="8.887" transform="translate(106.367 39.782)" fill="#ff325c"/>
      <rect id="Rectángulo_404688" data-name="Rectángulo 404688" width="6.207" height="7.195" transform="translate(61.789 18.903)" fill="#ff325c"/>
      <rect id="Rectángulo_404689" data-name="Rectángulo 404689" width="6.207" height="7.195" transform="translate(91.555 24.828)" fill="#726ccd"/>
      <rect id="Rectángulo_404690" data-name="Rectángulo 404690" width="6.207" height="11.003" transform="translate(76.742 31.6)" fill="#ffc400"/>
      <path id="Trazado_901471" data-name="Trazado 901471" d="M222.3,224.4l15.377,18.339,14.389-12.414L267.3,250.639" transform="translate(-157.831 -212.127)" fill="none" stroke="#9090f6" stroke-miterlimit="10" stroke-width="1"/>
    </g>
    <g id="Grupo_1106716" data-name="Grupo 1106716" transform="translate(319.432 202.188)">
      <path id="Trazado_901472" data-name="Trazado 901472" d="M268.418,145.1H235.125a5.961,5.961,0,0,0-5.925,5.925v33.434a5.961,5.961,0,0,0,5.925,5.925h33.293a5.961,5.961,0,0,0,5.925-5.925V151.166A5.992,5.992,0,0,0,268.418,145.1Z" transform="translate(-229.2 -145.1)" fill="#726ccd"/>
      <rect id="Rectángulo_404691" data-name="Rectángulo 404691" width="38.089" height="31.459" transform="translate(3.527 9.028)" fill="#ffc400"/>
      <g id="Grupo_1106715" data-name="Grupo 1106715" transform="translate(12.978 12.978)">
        <path id="Trazado_901473" data-name="Trazado 901473" d="M251.657,159.379a5.079,5.079,0,1,1-5.079-5.079A5.057,5.057,0,0,1,251.657,159.379Z" transform="translate(-237.127 -154.3)" fill="#fff"/>
        <path id="Trazado_901474" data-name="Trazado 901474" d="M257.586,175.22H238.4v-3.527a9.6,9.6,0,0,1,9.593-9.593h0a9.6,9.6,0,0,1,9.593,9.593Z" transform="translate(-238.4 -151.097)" fill="#fff"/>
      </g>
      <path id="Trazado_901475" data-name="Trazado 901475" d="M233.957,148.829a1.129,1.129,0,1,1-1.129-1.129A1.113,1.113,0,0,1,233.957,148.829Z" transform="translate(-228.173 -144.032)" fill="#fff"/>
      <path id="Trazado_901476" data-name="Trazado 901476" d="M236.957,148.829a1.129,1.129,0,1,1-1.129-1.129A1.113,1.113,0,0,1,236.957,148.829Z" transform="translate(-226.941 -144.032)" fill="#fff"/>
      <path id="Trazado_901477" data-name="Trazado 901477" d="M239.857,148.829a1.129,1.129,0,1,1-1.129-1.129A1.038,1.038,0,0,1,239.857,148.829Z" transform="translate(-225.75 -144.032)" fill="#fff"/>
    </g>
    <path id="Trazado_901478" data-name="Trazado 901478" d="M108.214,68.312l3.95-16.082-10.016-2.539a37.022,37.022,0,0,0-1.693-9.593l9.17-5.5L101.16,20.489l-9.311,5.643a32.793,32.793,0,0,0-7.618-5.5l2.68-10.58L70.83,6.1,68.291,16.539a34.748,34.748,0,0,0-9.452,1.27l-5.5-9.17L39.23,17.1l5.22,8.605A36.328,36.328,0,0,0,38.1,33.75l-9.452-2.4L24.7,47.434l8.887,2.257A33.941,33.941,0,0,0,35,60.412L27.38,64.926l8.464,14.107,7.336-4.514a31.825,31.825,0,0,0,8.887,6.63l-2.116,8.323L66.034,93.7,68.15,85.24a34.214,34.214,0,0,0,10.721-1.834l4.655,7.759L97.633,82.7l-4.8-8.323a35.179,35.179,0,0,0,5.925-8.464ZM83.244,58.437a23.2,23.2,0,0,1-1.975,3.1,17.731,17.731,0,0,1-8.605,5.643,21.9,21.9,0,0,1-2.962.564,16.848,16.848,0,0,1-5.925-.423,19.323,19.323,0,0,1-4.937-2.116c-.846-.564-1.552-1.129-2.257-1.693a17.455,17.455,0,0,1-5.5-9.593,23.069,23.069,0,0,1-.282-3.1,21.531,21.531,0,0,1,.423-4.232,20.65,20.65,0,0,1,2.4-5.361,12.83,12.83,0,0,1,2.539-2.962,17.178,17.178,0,0,1,7.759-4.091,15.85,15.85,0,0,1,4.514-.564,16.264,16.264,0,0,1,3.668.423,19.166,19.166,0,0,1,3.95,1.552,14.837,14.837,0,0,1,3.809,2.821,17.043,17.043,0,0,1,4.373,6.771,21.822,21.822,0,0,1,.846,4.373,17.571,17.571,0,0,1-.423,5.361A26.254,26.254,0,0,1,83.244,58.437Z" transform="translate(6.243)" fill="#8080ff"/>
    <path id="Trazado_901479" data-name="Trazado 901479" d="M305.451,133.478l2.4-9.452-5.925-1.411a18.963,18.963,0,0,0-.988-5.643l5.361-3.245-4.937-8.323-5.5,3.245a19.553,19.553,0,0,0-4.373-3.245l1.552-6.207-9.452-2.4-1.552,6.066a22.572,22.572,0,0,0-5.5.705l-3.1-5.22-8.323,4.937,2.962,5.079a23.187,23.187,0,0,0-3.668,4.655l-5.5-1.411-2.4,9.452,5.22,1.27a19.683,19.683,0,0,0,.846,6.348l-4.514,2.68,4.937,8.323,4.373-2.539a24.2,24.2,0,0,0,5.22,3.95l-1.27,4.937,9.452,2.4,1.27-4.937a20.08,20.08,0,0,0,6.348-1.129l2.68,4.514,8.323-4.937-2.821-4.8a17.085,17.085,0,0,0,3.386-4.937Zm-14.671-5.784a8,8,0,0,1-1.129,1.834,10.466,10.466,0,0,1-5.079,3.386,7.081,7.081,0,0,1-1.693.282,10.02,10.02,0,0,1-3.527-.141,10.183,10.183,0,0,1-2.821-1.27,7.754,7.754,0,0,1-1.27-.987,9.56,9.56,0,0,1-3.245-5.643,8.043,8.043,0,0,1-.141-1.834,7.811,7.811,0,0,1,.282-2.539,10.431,10.431,0,0,1,1.411-3.1,5.644,5.644,0,0,1,1.411-1.693,10.757,10.757,0,0,1,4.514-2.4,15.625,15.625,0,0,1,2.68-.282,10.89,10.89,0,0,1,2.116.282,6.481,6.481,0,0,1,2.257.987,8.606,8.606,0,0,1,2.257,1.693,10.579,10.579,0,0,1,2.539,3.95,7.987,7.987,0,0,1,.423,2.539,9.222,9.222,0,0,1-.987,4.937Z" transform="translate(101.444 37.251)" fill="#8080ff"/>
    <g id="Grupo_1106727" data-name="Grupo 1106727" transform="translate(55.348 54.769)">
      <g id="Grupo_1106720" data-name="Grupo 1106720" transform="translate(0)">
        <g id="Grupo_1106719" data-name="Grupo 1106719">
          <g id="Grupo_1106718" data-name="Grupo 1106718">
            <g id="Grupo_1106717" data-name="Grupo 1106717">
              <path id="Trazado_901480" data-name="Trazado 901480" d="M192.1,40.6H72.189A30.223,30.223,0,0,0,42,70.789V363.228a30.223,30.223,0,0,0,30.189,30.189H192.1a30.223,30.223,0,0,0,30.189-30.189V70.789A30.044,30.044,0,0,0,192.1,40.6Z" transform="translate(-42 -40.6)" fill="#4236a4"/>
              <rect id="Rectángulo_404692" data-name="Rectángulo 404692" width="165.617" height="289.335" transform="translate(7.477 27.086)" fill="#eff0ff"/>
              <rect id="Rectángulo_404693" data-name="Rectángulo 404693" width="40.91" height="3.527" transform="translate(69.689 12.273)" fill="#fff"/>
              <path id="Trazado_901481" data-name="Trazado 901481" d="M117.557,280.229a9.029,9.029,0,1,1-9.029-9.029A9,9,0,0,1,117.557,280.229Z" transform="translate(-18.385 54.108)" fill="#fff"/>
            </g>
          </g>
        </g>
      </g>
      <g id="Grupo_1106722" data-name="Grupo 1106722" transform="translate(24.405 61.789)">
        <g id="Grupo_1106721" data-name="Grupo 1106721">
          <rect id="Rectángulo_404694" data-name="Rectángulo 404694" width="128.233" height="77.73" fill="#9090f6"/>
          <rect id="Rectángulo_404695" data-name="Rectángulo 404695" width="113.562" height="65.175" transform="translate(7.054 6.207)" fill="#fff"/>
        </g>
        <path id="Trazado_901482" data-name="Trazado 901482" d="M67.4,147.262,90.959,96.9l28.919,36.114,15.095-20.032,37.384,34.28Z" transform="translate(-55.973 -79.266)" fill="#726ccd"/>
        <circle id="Elipse_12085" data-name="Elipse 12085" cx="8.746" cy="8.746" r="8.746" transform="translate(89.156 13.966)" fill="#ffc400"/>
      </g>
      <g id="Grupo_1106726" data-name="Grupo 1106726" transform="translate(21.769 159.283)">
        <g id="Grupo_1106723" data-name="Grupo 1106723" transform="translate(41.162 111.565)">
          <rect id="Rectángulo_404696" data-name="Rectángulo 404696" width="95.646" height="2.257" transform="translate(95.646 25.04) rotate(180)" fill="#b8c3ff"/>
          <rect id="Rectángulo_404697" data-name="Rectángulo 404697" width="95.646" height="2.257" transform="translate(95.646 13.578) rotate(180)" fill="#b8c3ff"/>
          <rect id="Rectángulo_404698" data-name="Rectángulo 404698" width="95.646" height="2.257" transform="translate(95.646 2.257) rotate(180)" fill="#b8c3ff"/>
        </g>
        <rect id="Rectángulo_404699" data-name="Rectángulo 404699" width="34.985" height="34.985" transform="translate(34.985 141.508) rotate(180)" fill="#b8c3ff"/>
        <g id="Grupo_1106724" data-name="Grupo 1106724" transform="translate(41.162 58.779)">
          <rect id="Rectángulo_404700" data-name="Rectángulo 404700" width="43.873" height="2.257" transform="translate(43.916 25.181) rotate(180)" fill="#b8c3ff"/>
          <rect id="Rectángulo_404701" data-name="Rectángulo 404701" width="95.646" height="2.257" transform="translate(95.646 13.719) rotate(180)" fill="#b8c3ff"/>
          <rect id="Rectángulo_404702" data-name="Rectángulo 404702" width="95.646" height="2.257" transform="translate(95.646 2.257) rotate(180)" fill="#b8c3ff"/>
        </g>
        <rect id="Rectángulo_404703" data-name="Rectángulo 404703" width="34.985" height="34.985" transform="translate(34.985 88.863) rotate(180)" fill="#b8c3ff"/>
        <g id="Grupo_1106725" data-name="Grupo 1106725" transform="translate(41.162 5.043)">
          <rect id="Rectángulo_404704" data-name="Rectángulo 404704" width="95.646" height="2.257" transform="translate(95.646 25.04) rotate(180)" fill="#b8c3ff"/>
          <rect id="Rectángulo_404705" data-name="Rectángulo 404705" width="95.646" height="2.257" transform="translate(95.646 13.578) rotate(180)" fill="#b8c3ff"/>
          <rect id="Rectángulo_404706" data-name="Rectángulo 404706" width="95.646" height="2.257" transform="translate(95.646 2.257) rotate(180)" fill="#b8c3ff"/>
        </g>
        <rect id="Rectángulo_404707" data-name="Rectángulo 404707" width="34.985" height="34.985" transform="translate(34.985 34.985) rotate(180)" fill="#b8c3ff"/>
      </g>
    </g>
    <g id="Grupo_1106733" data-name="Grupo 1106733" transform="translate(174.553 212.768)">
      <rect id="Rectángulo_404708" data-name="Rectángulo 404708" width="61.083" height="78.999" transform="translate(0 4.655)" fill="#4236a4" opacity="0.29"/>
      <g id="Grupo_1106732" data-name="Grupo 1106732" transform="translate(4.232)">
        <g id="Grupo_1106731" data-name="Grupo 1106731">
          <rect id="Rectángulo_404709" data-name="Rectángulo 404709" width="125.835" height="79.705" fill="#f9fffb"/>
          <g id="Grupo_1106729" data-name="Grupo 1106729" transform="translate(38.512 10.439)">
            <g id="Grupo_1106728" data-name="Grupo 1106728">
              <path id="Trazado_901483" data-name="Trazado 901483" d="M180.359,207.117a23.559,23.559,0,1,1,23.559-23.559A23.6,23.6,0,0,1,180.359,207.117Zm0-44.86A21.443,21.443,0,1,0,201.8,183.7,21.433,21.433,0,0,0,180.359,162.257Z" transform="translate(-156.8 -160)" fill="#ff325c"/>
            </g>
            <path id="Trazado_901484" data-name="Trazado 901484" d="M189.984,180.6,168.4,167.2V194Z" transform="translate(-152.036 -157.043)" fill="#ff325c"/>
          </g>
          <g id="Grupo_1106730" data-name="Grupo 1106730" transform="translate(3.245 67.149)">
            <rect id="Rectángulo_404710" data-name="Rectángulo 404710" width="119.628" height="8.605" fill="#726ccd"/>
            <path id="Trazado_901485" data-name="Trazado 901485" d="M138.414,204.121,133.9,201.3v5.5Z" transform="translate(-130.938 -199.748)" fill="#f9fffb"/>
            <path id="Trazado_901486" data-name="Trazado 901486" d="M181.461,203.98a2.68,2.68,0,1,1-2.68-2.68A2.772,2.772,0,0,1,181.461,203.98Z" transform="translate(-113.606 -199.748)" fill="#f9fffb"/>
          </g>
        </g>
        <line id="Línea_1588" data-name="Línea 1588" x2="109.33" transform="translate(10.721 71.523)" fill="none" stroke="#f9fffb" stroke-miterlimit="10" stroke-width="1"/>
      </g>
    </g>
    <g id="Grupo_1106735" data-name="Grupo 1106735" transform="translate(246.499 148.44)">
      <rect id="Rectángulo_404711" data-name="Rectángulo 404711" width="103.687" height="40.91" fill="#5656bf"/>
      <g id="Grupo_1106734" data-name="Grupo 1106734" transform="translate(13.684 12.837)">
        <rect id="Rectángulo_404712" data-name="Rectángulo 404712" width="77.307" height="3.527" fill="#fff"/>
        <rect id="Rectángulo_404713" data-name="Rectángulo 404713" width="77.307" height="3.527" transform="translate(0 7.9)" fill="#fff"/>
        <rect id="Rectángulo_404714" data-name="Rectángulo 404714" width="52.619" height="3.527" transform="translate(0 15.8)" fill="#fff"/>
      </g>
    </g>
    <g id="Grupo_1106743" data-name="Grupo 1106743" transform="translate(209.538 38.969)">
      <g id="Grupo_1106738" data-name="Grupo 1106738">
        <g id="Grupo_1106737" data-name="Grupo 1106737">
          <path id="Trazado_901487" data-name="Trazado 901487" d="M177.539,120.828H151.3V40.7c13.966,1.975,26.239,12.414,26.239,26.8Z" transform="translate(-151.3 -24.759)" fill="#4236a4" opacity="0.19"/>
          <g id="Grupo_1106736" data-name="Grupo 1106736" transform="translate(4.373)">
            <rect id="Rectángulo_404715" data-name="Rectángulo 404715" width="139.519" height="90.99" fill="#9090f6"/>
            <rect id="Rectángulo_404716" data-name="Rectángulo 404716" width="123.86" height="77.307" transform="translate(7.759 6.771)" fill="#fff"/>
          </g>
        </g>
      </g>
      <g id="Grupo_1106739" data-name="Grupo 1106739" transform="translate(69.689 11.568)">
        <path id="Trazado_901488" data-name="Trazado 901488" d="M227.027,44.7h-.846A18.544,18.544,0,0,0,207.7,63.18a17.723,17.723,0,0,0,3.95,11.286" transform="translate(-197.825 -34.684)" fill="none"/>
        <path id="Trazado_901489" data-name="Trazado 901489" d="M238.893,65.2a10.676,10.676,0,0,0,.141-2.116A18.574,18.574,0,0,0,221.4,44.6" transform="translate(-192.198 -34.725)" fill="none"/>
        <path id="Trazado_901490" data-name="Trazado 901490" d="M210.5,68.47a18.391,18.391,0,0,0,32.869-9.17" transform="translate(-196.675 -28.688)" fill="none"/>
        <path id="Trazado_901491" data-name="Trazado 901491" d="M222.529,37.7,221.4,47.434a18.379,18.379,0,0,1,17.634,18.48,10.676,10.676,0,0,1-.141,2.116l9.734,1.834a34.586,34.586,0,0,0,.282-3.809A28.383,28.383,0,0,0,222.529,37.7Z" transform="translate(-192.198 -37.559)" fill="#ff325c"/>
        <path id="Trazado_901492" data-name="Trazado 901492" d="M226.8,75.605a18.309,18.309,0,0,1-14.53-7.195L206.2,76.452a28.22,28.22,0,0,0,48.669-15.518L245.135,59.1A18.486,18.486,0,0,1,226.8,75.605Z" transform="translate(-198.441 -28.77)" fill="#5656bf"/>
        <path id="Trazado_901493" data-name="Trazado 901493" d="M210.575,65.955a18.544,18.544,0,0,1,18.48-18.48h.846l1.129-9.734c-.705,0-1.27-.141-1.975-.141a28.347,28.347,0,0,0-20.737,47.682l6.066-8.041A19.046,19.046,0,0,1,210.575,65.955Z" transform="translate(-200.7 -37.6)" fill="#ffc400"/>
      </g>
      <g id="Grupo_1106740" data-name="Grupo 1106740" transform="translate(23.559 72.651)">
        <path id="Trazado_901494" data-name="Trazado 901494" d="M185.916,85.3H169.552A1.566,1.566,0,0,1,168,83.752h0a1.566,1.566,0,0,1,1.552-1.552h16.364Z" transform="translate(-168 -80.366)" fill="#c5c5ff"/>
        <circle id="Elipse_12086" data-name="Elipse 12086" cx="3.245" cy="3.245" r="3.245" transform="translate(14.389)" fill="#ff325c"/>
      </g>
      <g id="Grupo_1106741" data-name="Grupo 1106741" transform="translate(64.61 72.651)">
        <path id="Trazado_901495" data-name="Trazado 901495" d="M215.016,85.3H198.652a1.566,1.566,0,0,1-1.552-1.552h0a1.566,1.566,0,0,1,1.552-1.552h16.364Z" transform="translate(-197.1 -80.366)" fill="#c5c5ff"/>
        <circle id="Elipse_12087" data-name="Elipse 12087" cx="3.245" cy="3.245" r="3.245" transform="translate(14.248)" fill="#ffc400"/>
      </g>
      <g id="Grupo_1106742" data-name="Grupo 1106742" transform="translate(105.521 72.651)">
        <path id="Trazado_901496" data-name="Trazado 901496" d="M244.016,85.3H227.652a1.566,1.566,0,0,1-1.552-1.552h0a1.566,1.566,0,0,1,1.552-1.552h16.364Z" transform="translate(-226.1 -80.366)" fill="#c5c5ff"/>
        <circle id="Elipse_12088" data-name="Elipse 12088" cx="3.245" cy="3.245" r="3.245" transform="translate(14.389)" fill="#5656bf"/>
      </g>
      <rect id="Rectángulo_404717" data-name="Rectángulo 404717" width="35.973" height="3.668" transform="translate(23.418 15.941)" fill="#c5c5ff"/>
      <rect id="Rectángulo_404718" data-name="Rectángulo 404718" width="35.973" height="3.668" transform="translate(23.418 25.111)" fill="#c5c5ff"/>
      <rect id="Rectángulo_404719" data-name="Rectángulo 404719" width="35.973" height="3.668" transform="translate(23.418 34.139)" fill="#c5c5ff"/>
      <rect id="Rectángulo_404720" data-name="Rectángulo 404720" width="35.973" height="3.668" transform="translate(23.418 43.309)" fill="#c5c5ff"/>
      <rect id="Rectángulo_404721" data-name="Rectángulo 404721" width="35.973" height="3.668" transform="translate(23.418 52.337)" fill="#c5c5ff"/>
      <rect id="Rectángulo_404722" data-name="Rectángulo 404722" width="35.973" height="3.668" transform="translate(23.418 61.366)" fill="#c5c5ff"/>
    </g>
    <g id="Grupo_1106747" data-name="Grupo 1106747" transform="translate(9.782 80.303)">
      <rect id="Rectángulo_404723" data-name="Rectángulo 404723" width="65.175" height="53.889" fill="#a6b2ff"/>
      <g id="Grupo_1106744" data-name="Grupo 1106744" transform="translate(7.054 14.389)">
        <path id="Trazado_901497" data-name="Trazado 901497" d="M28.384,96.409,14.7,82.725,28.666,68.9l2.257,2.257L19.355,82.725,30.782,94.152Z" transform="translate(-14.7 -68.9)" fill="#fff"/>
      </g>
      <g id="Grupo_1106745" data-name="Grupo 1106745" transform="translate(41.898 14.389)">
        <path id="Trazado_901498" data-name="Trazado 901498" d="M41.8,96.409l-2.4-2.257L50.968,82.584,39.682,71.157,41.939,68.9,55.623,82.584Z" transform="translate(-39.4 -68.9)" fill="#fff"/>
      </g>
      <g id="Grupo_1106746" data-name="Grupo 1106746" transform="translate(26.096 15.993)">
        <rect id="Rectángulo_404724" data-name="Rectángulo 404724" width="26.239" height="3.245" transform="translate(0 24.24) rotate(-67.492)" fill="#fff"/>
      </g>
    </g>
  </g>
</svg>
