<svg xmlns="http://www.w3.org/2000/svg" width="359" height="352.577" viewBox="0 0 359 352.577">
  <g id="_33756670_8104936" data-name="33756670_8104936" transform="translate(-41.125 -55.2)">
    <g id="Background_complete" transform="translate(58.391 55.2)">
      <path id="Trazado_901499" data-name="Trazado 901499" d="M240.162,178.783c3.1-3.683,14.849-6.148,21.338-.33,0,0-2.236-3.454,0-6.405,0,0-2.951,1.917-5.589,0s-3.269-11.5-3.269-11.5-.62,9.73-4.957,10.619-7.115-5.282-7.115-5.282,2.359,6.768,1.179,7.825-3.538,0-3.538,0Z" transform="translate(-104.94 -66.673)" fill="#e0e0e0"/>
      <path id="Trazado_901500" data-name="Trazado 901500" d="M229.3,191.218s-4.27,8.288,0,15.7a6.818,6.818,0,0,0-6.008-.659s1.677-1.772,1.436-3.65-7.958-4.532-7.958-4.532,6.081.559,7.405-1.548-3.353-6.187-3.353-6.187,5.114,2.761,6.221,1.878,0-3.65,0-3.65Z" transform="translate(-99.779 -69.725)" fill="#e0e0e0"/>
      <path id="Trazado_901501" data-name="Trazado 901501" d="M273.7,208.217s4.315-5.98.883-15.062l2.962-1.777s-1.117,1.894-.442,3.1,6.964.369,6.964.369-4.974,1-5.191,3.627,6.187,6.467,6.187,6.467-5.857-1.464-7.07,0,1.38,4.3,1.38,4.3S276.466,207.155,273.7,208.217Z" transform="translate(-111.75 -70.03)" fill="#e0e0e0"/>
      <path id="Trazado_901502" data-name="Trazado 901502" d="M80.644,141.339a33.267,33.267,0,0,0-4.752,11.516l-6.43.606v12.453l6.431.606a33.264,33.264,0,0,0,4.752,11.516L76.537,183l8.806,8.806L90.3,187.7a33.255,33.255,0,0,0,11.516,4.751l.605,6.431h12.453l.606-6.43A33.267,33.267,0,0,0,127,187.694l4.961,4.107L140.766,183l-4.107-4.961a33.272,33.272,0,0,0,4.751-11.516l6.43-.606V153.46l-6.43-.606a33.278,33.278,0,0,0-4.753-11.515l4.107-4.962-8.806-8.806L127,131.679a33.283,33.283,0,0,0-11.516-4.753l-.606-6.431H102.424l-.605,6.43A33.252,33.252,0,0,0,90.3,131.678l-4.962-4.107-8.806,8.807Zm39.928,6.427a16.859,16.859,0,1,1-23.842,0A16.86,16.86,0,0,1,120.572,147.766Z" transform="translate(-61.477 -62.311)" fill="#e0e0e0"/>
      <path id="Trazado_901503" data-name="Trazado 901503" d="M167.638,75.033A18.11,18.11,0,0,0,165.05,81.3l-3.5.33v6.782l3.5.33a18.123,18.123,0,0,0,2.588,6.272l-2.237,2.7,4.8,4.8,2.7-2.237a18.109,18.109,0,0,0,6.272,2.588l.33,3.5h6.782l.33-3.5a18.133,18.133,0,0,0,6.272-2.588l2.7,2.237,4.8-4.8-2.237-2.7a18.116,18.116,0,0,0,2.588-6.272l3.5-.33V81.635l-3.5-.33a18.114,18.114,0,0,0-2.589-6.271l2.237-2.7-4.8-4.8-2.7,2.237a18.125,18.125,0,0,0-6.272-2.589l-.33-3.5H179.5l-.33,3.5a18.123,18.123,0,0,0-6.272,2.588l-2.7-2.237-4.8,4.8Zm21.745,3.5a9.181,9.181,0,1,1-12.985,0A9.181,9.181,0,0,1,189.383,78.533Z" transform="translate(-89.337 -56.124)" fill="#f0f0f0"/>
      <path id="Trazado_901504" data-name="Trazado 901504" d="M307.481,219.74a12.751,12.751,0,0,0-1.82,4.408l-2.462.232v4.767l2.462.232a12.724,12.724,0,0,0,1.82,4.408l-1.572,1.9,3.371,3.371,1.9-1.572a12.722,12.722,0,0,0,4.408,1.819l.232,2.462h4.767l.232-2.461a12.723,12.723,0,0,0,4.408-1.82l1.9,1.572,3.371-3.371-1.572-1.9a12.739,12.739,0,0,0,1.819-4.408l2.461-.232V224.38l-2.461-.232a12.729,12.729,0,0,0-1.82-4.407l1.572-1.9-3.371-3.371-1.9,1.572a12.742,12.742,0,0,0-4.408-1.82l-.232-2.462h-4.767l-.232,2.461a12.739,12.739,0,0,0-4.408,1.819l-1.9-1.572-3.371,3.371Zm15.284,2.46a6.453,6.453,0,1,1-9.127,0A6.454,6.454,0,0,1,322.765,222.2Z" transform="translate(-119.377 -72.25)" fill="#e0e0e0"/>
      <path id="Trazado_901505" data-name="Trazado 901505" d="M292.541,263.87a18.129,18.129,0,0,0-2.589,6.272l-3.5.33v6.782l3.5.33a18.123,18.123,0,0,0,2.588,6.272l-2.237,2.7,4.8,4.8,2.7-2.237a18.108,18.108,0,0,0,6.272,2.588l.33,3.5h6.782l.33-3.5a18.1,18.1,0,0,0,6.272-2.589l2.7,2.237,4.8-4.8-2.237-2.7a18.109,18.109,0,0,0,2.588-6.272l3.5-.33v-6.782l-3.5-.331a18.113,18.113,0,0,0-2.589-6.271l2.237-2.7-4.8-4.8-2.7,2.237a18.125,18.125,0,0,0-6.272-2.589l-.33-3.5H304.4l-.33,3.5a18.123,18.123,0,0,0-6.272,2.588l-2.7-2.237-4.8,4.8Zm21.745,3.5a9.182,9.182,0,1,1-12.985,0A9.183,9.183,0,0,1,314.286,267.37Z" transform="translate(-116.726 -76.689)" fill="#e0e0e0"/>
      <path id="Trazado_901506" data-name="Trazado 901506" d="M348.788,248.367a25.6,25.6,0,0,0-3.656,8.858l-4.947.466v9.58l4.947.466a25.58,25.58,0,0,0,3.656,8.859l-3.16,3.817,6.775,6.774,3.817-3.16a25.585,25.585,0,0,0,8.858,3.655l.466,4.947h9.579l.466-4.946a25.6,25.6,0,0,0,8.859-3.656l3.817,3.16,6.775-6.774-3.16-3.817a25.584,25.584,0,0,0,3.655-8.858l4.946-.466v-9.58l-4.946-.466a25.6,25.6,0,0,0-3.656-8.858l3.16-3.817-6.774-6.774-3.817,3.16a25.594,25.594,0,0,0-8.858-3.656l-.466-4.947h-9.58l-.466,4.947a25.6,25.6,0,0,0-8.858,3.655l-3.817-3.16-6.775,6.775Zm30.716,4.945a12.969,12.969,0,1,1-18.341,0A12.971,12.971,0,0,1,379.5,253.312Z" transform="translate(-130.225 -74.491)" fill="#f0f0f0"/>
      <path id="Trazado_901507" data-name="Trazado 901507" d="M294.79,84.434a21.2,21.2,0,0,0-3.031,7.343l-4.1.386V100.1l4.1.387a21.187,21.187,0,0,0,3.031,7.343L292.172,111l5.615,5.615,3.163-2.619a21.2,21.2,0,0,0,7.343,3.03l.386,4.1h7.941l.387-4.1a21.216,21.216,0,0,0,7.344-3.031l3.163,2.619L333.128,111l-2.619-3.163a21.2,21.2,0,0,0,3.03-7.343l4.1-.387V92.162l-4.1-.387a21.236,21.236,0,0,0-3.031-7.343l2.619-3.163-5.615-5.615-3.163,2.619a21.235,21.235,0,0,0-7.343-3.031l-.386-4.1H308.68l-.386,4.1a21.2,21.2,0,0,0-7.343,3.031l-3.163-2.619-5.615,5.616Zm25.46,4.1a10.75,10.75,0,1,1-15.2,0A10.751,10.751,0,0,1,320.251,88.533Z" transform="translate(-117.576 -56.936)" fill="#f0f0f0"/>
      <path id="Trazado_901508" data-name="Trazado 901508" d="M67.231,276.694a20.01,20.01,0,0,0-2.86,6.931l-3.87.364v7.5l3.871.364a20.017,20.017,0,0,0,2.86,6.931l-2.472,2.986,5.3,5.3,2.986-2.472a20.008,20.008,0,0,0,6.931,2.86l.364,3.871h7.5l.364-3.87a20.01,20.01,0,0,0,6.931-2.86l2.986,2.472,5.3-5.3-2.472-2.986a20.025,20.025,0,0,0,2.86-6.931l3.87-.364v-7.495l-3.87-.364a20.03,20.03,0,0,0-2.86-6.93l2.472-2.986-5.3-5.3-2.986,2.472a20.034,20.034,0,0,0-6.931-2.86l-.364-3.871h-7.5l-.364,3.87a20.006,20.006,0,0,0-6.93,2.86l-2.986-2.472-5.3,5.3Zm24.032,3.868a10.147,10.147,0,1,1-14.35,0A10.147,10.147,0,0,1,91.263,280.562Z" transform="translate(-60.501 -77.955)" fill="#f0f0f0"/>
      <g id="Grupo_1106756" data-name="Grupo 1106756">
        <g id="Grupo_1106755" data-name="Grupo 1106755">
          <g id="Grupo_1106752" data-name="Grupo 1106752" transform="translate(43.56)">
            <g id="Grupo_1106749" data-name="Grupo 1106749" transform="translate(81.916)">
              <g id="Grupo_1106748" data-name="Grupo 1106748">
                <path id="Trazado_901509" data-name="Trazado 901509" d="M423.6,300.249H262.536a5.23,5.23,0,0,1-5.224-5.224V60.424a5.23,5.23,0,0,1,5.224-5.224H423.6a5.229,5.229,0,0,1,5.224,5.224v234.6A5.229,5.229,0,0,1,423.6,300.249ZM262.536,55.423a5.006,5.006,0,0,0-5,5v234.6a5.006,5.006,0,0,0,5,5H423.6a5.006,5.006,0,0,0,5-5V60.424a5.007,5.007,0,0,0-5-5Z" transform="translate(-257.312 -55.2)" fill="#e0e0e0"/>
              </g>
            </g>
            <g id="Grupo_1106751" data-name="Grupo 1106751">
              <g id="Grupo_1106750" data-name="Grupo 1106750">
                <path id="Trazado_901510" data-name="Trazado 901510" d="M215.17,300.249H54.108a5.23,5.23,0,0,1-5.224-5.224V60.424A5.229,5.229,0,0,1,54.108,55.2H215.17a5.229,5.229,0,0,1,5.224,5.224v234.6A5.23,5.23,0,0,1,215.17,300.249ZM54.108,55.423a5.007,5.007,0,0,0-5,5v234.6a5.006,5.006,0,0,0,5,5H215.17a5.006,5.006,0,0,0,5-5V60.424a5.007,5.007,0,0,0-5-5Z" transform="translate(-48.884 -55.2)" fill="#e0e0e0"/>
              </g>
            </g>
          </g>
          <g id="Grupo_1106754" data-name="Grupo 1106754" transform="translate(0 299.468)">
            <g id="Grupo_1106753" data-name="Grupo 1106753">
              <rect id="Rectángulo_404725" data-name="Rectángulo 404725" width="341.734" height="0.223" fill="#e0e0e0"/>
            </g>
          </g>
        </g>
        <rect id="Rectángulo_404726" data-name="Rectángulo 404726" width="14.311" height="0.223" transform="translate(46.045 312.178)" fill="#e0e0e0"/>
        <rect id="Rectángulo_404727" data-name="Rectángulo 404727" width="47.7" height="0.223" transform="translate(112.19 309.763)" fill="#e0e0e0"/>
        <rect id="Rectángulo_404728" data-name="Rectángulo 404728" width="32.302" height="0.223" transform="translate(52.159 320.457)" fill="#e0e0e0"/>
        <rect id="Rectángulo_404729" data-name="Rectángulo 404729" width="38.486" height="0.223" transform="translate(251.164 309.648)" fill="#e0e0e0"/>
        <rect id="Rectángulo_404730" data-name="Rectángulo 404730" width="5.641" height="0.223" transform="translate(279.76 309.648)" fill="#e0e0e0"/>
        <rect id="Rectángulo_404731" data-name="Rectángulo 404731" width="48.021" height="0.223" transform="translate(208.19 315.199)" fill="#e0e0e0"/>
      </g>
    </g>
    <g id="Shadow" transform="translate(41.125 396.849)">
      <g id="Grupo_1106758" data-name="Grupo 1106758">
        <g id="Grupo_1106757" data-name="Grupo 1106757">
          <path id="Trazado_901511" data-name="Trazado 901511" d="M363.479,444.067c0,3.018-72.162,5.464-161.177,5.464s-161.177-2.447-161.177-5.464S113.286,438.6,202.3,438.6,363.479,441.049,363.479,444.067Z" transform="translate(-41.125 -438.603)" fill="#f5f5f5"/>
        </g>
      </g>
    </g>
    <g id="Light_Bulb" transform="translate(185.838 167.31)">
      <g id="freepik--light-bulb--inject-2">
        <g id="Grupo_1106763" data-name="Grupo 1106763">
          <g id="Grupo_1106759" data-name="Grupo 1106759">
            <path id="Trazado_901512" data-name="Trazado 901512" d="M258.859,232c0,2.262-3.146,4.077-6.972,4.016s-6.9-1.91-6.87-4.172,3.146-4.077,6.965-4.009S258.886,229.744,258.859,232Z" transform="translate(-233.297 -186.111)" fill="#263238"/>
            <path id="Trazado_901513" data-name="Trazado 901513" d="M261.409,223.465a2.04,2.04,0,0,0,.632-1.359c0-2.215-4.668-4.077-10.485-4.131s-10.553,1.678-10.58,3.893a2.035,2.035,0,0,0,.605,1.359,1.629,1.629,0,0,0-.184.68,1.922,1.922,0,0,0,.618,1.359,1.546,1.546,0,0,0-.2.72,1.882,1.882,0,0,0,.639,1.359,1.436,1.436,0,0,0-.217.734,1.847,1.847,0,0,0,.679,1.318,1.43,1.43,0,0,0-.231.741c0,1.842,3.88,3.4,8.718,3.439s8.773-1.359,8.793-3.241a1.414,1.414,0,0,0-.217-.748,1.832,1.832,0,0,0,.679-1.3,1.527,1.527,0,0,0-.2-.734,1.925,1.925,0,0,0,.68-1.318,1.58,1.58,0,0,0-.184-.727,1.943,1.943,0,0,0,.679-1.325A1.659,1.659,0,0,0,261.409,223.465Z" transform="translate(-232.857 -185.037)" fill="#263238"/>
            <path id="Trazado_901514" data-name="Trazado 901514" d="M261.409,223.465a2.04,2.04,0,0,0,.632-1.359c0-2.215-4.668-4.077-10.485-4.131s-10.553,1.678-10.58,3.893a2.035,2.035,0,0,0,.605,1.359,1.629,1.629,0,0,0-.184.68,1.922,1.922,0,0,0,.618,1.359,1.546,1.546,0,0,0-.2.72,1.882,1.882,0,0,0,.639,1.359,1.436,1.436,0,0,0-.217.734,1.847,1.847,0,0,0,.679,1.318,1.43,1.43,0,0,0-.231.741c0,1.842,3.88,3.4,8.718,3.439s8.773-1.359,8.793-3.241a1.414,1.414,0,0,0-.217-.748,1.832,1.832,0,0,0,.679-1.3,1.527,1.527,0,0,0-.2-.734,1.925,1.925,0,0,0,.68-1.318,1.58,1.58,0,0,0-.184-.727,1.943,1.943,0,0,0,.679-1.325A1.659,1.659,0,0,0,261.409,223.465Z" transform="translate(-232.857 -185.037)" fill="#fff" opacity="0.3"/>
            <path id="Trazado_901515" data-name="Trazado 901515" d="M269.142,199.869a18.639,18.639,0,1,0-30.62,14.06,3.063,3.063,0,0,1,1.1,2.663,1.047,1.047,0,0,0,0,.15c0,2.249,4.757,4.131,10.655,4.2s10.716-1.706,10.743-3.962v-.143a3.091,3.091,0,0,1,1.162-2.7A18.591,18.591,0,0,0,269.142,199.869Z" transform="translate(-231.865 -181.012)" fill="#407bff"/>
            <path id="Trazado_901516" data-name="Trazado 901516" d="M269.155,199.869a18.639,18.639,0,1,0-30.62,14.06,3.063,3.063,0,0,1,1.1,2.663,1.047,1.047,0,0,0,0,.15c0,2.249,4.757,4.131,10.655,4.2s10.716-1.706,10.743-3.962v-.143a3.091,3.091,0,0,1,1.162-2.7A18.585,18.585,0,0,0,269.155,199.869Z" transform="translate(-231.866 -181.012)" fill="#fff" opacity="0.5"/>
            <path id="Trazado_901517" data-name="Trazado 901517" d="M261.1,189.221c0,3.629-4.247,6.578-9.513,6.578s-9.513-2.95-9.513-6.578,4.247-6.584,9.513-6.584S261.1,185.587,261.1,189.221Z" transform="translate(-232.976 -181.189)" fill="#fff" opacity="0.2"/>
          </g>
          <path id="Trazado_901518" data-name="Trazado 901518" d="M236.606,207.716a14.32,14.32,0,0,1,2.612-17.694" transform="translate(-232.169 -181.993)" fill="none" stroke="#fff" stroke-linecap="round" stroke-linejoin="round" stroke-miterlimit="10" stroke-width="0.5"/>
          <g id="Grupo_1106760" data-name="Grupo 1106760" transform="translate(10.031 44.404)">
            <path id="Trazado_901519" data-name="Trazado 901519" d="M243.122,230.842a23.233,23.233,0,0,0,17.028.207,20.817,20.817,0,0,1-17.028-.207Z" transform="translate(-243.122 -230.842)" fill="#263238"/>
          </g>
          <g id="Grupo_1106761" data-name="Grupo 1106761" transform="translate(9.905 42.403)">
            <path id="Trazado_901520" data-name="Trazado 901520" d="M242.98,228.6a23.233,23.233,0,0,0,17.028.207,20.817,20.817,0,0,1-17.028-.207Z" transform="translate(-242.98 -228.597)" fill="#263238"/>
          </g>
          <g id="Grupo_1106762" data-name="Grupo 1106762" transform="translate(9.778 40.403)">
            <path id="Trazado_901521" data-name="Trazado 901521" d="M242.838,226.352a23.233,23.233,0,0,0,17.028.207,20.817,20.817,0,0,1-17.028-.207Z" transform="translate(-242.838 -226.352)" fill="#263238"/>
          </g>
          <path id="Trazado_901522" data-name="Trazado 901522" d="M248.032,219.2a32.635,32.635,0,0,0,.719-15.19c-.156-.81-.521-1.787-1.248-1.8-.651-.016-1.078.783-1.218,1.508-.5,2.562.831,5.164,2.531,6.933a5.2,5.2,0,0,0,3.279,1.854,4.467,4.467,0,0,0,3.345-1.663,8.509,8.509,0,0,0,1.966-7.467c-.265-1.113-1.055-2.309-2.049-2.1a1.806,1.806,0,0,0-1.191,1.433,5.957,5.957,0,0,0,.009,2.069,63.251,63.251,0,0,0,3.588,14.41" transform="translate(-233.423 -183.215)" fill="none" stroke="#263238" stroke-linecap="round" stroke-linejoin="round" stroke-miterlimit="10" stroke-width="0.5"/>
        </g>
      </g>
    </g>
    <g id="Speech_Bubble" transform="translate(247.524 90.7)">
      <g id="Grupo_1106767" data-name="Grupo 1106767">
        <g id="Grupo_1106764" data-name="Grupo 1106764" transform="translate(33.56 51.039)">
          <path id="Trazado_901523" data-name="Trazado 901523" d="M354.494,152.746c.554.111,8.376,9.3,8.376,9.3l6.7-9.728Z" transform="translate(-354.494 -152.316)" fill="#407bff"/>
          <path id="Trazado_901524" data-name="Trazado 901524" d="M354.494,152.746c.554.111,8.376,9.3,8.376,9.3l6.7-9.728Z" transform="translate(-354.494 -152.316)" fill="#fff" opacity="0.5"/>
        </g>
        <g id="Grupo_1106766" data-name="Grupo 1106766">
          <g id="Grupo_1106765" data-name="Grupo 1106765">
            <path id="Trazado_901525" data-name="Trazado 901525" d="M400.087,146.614H320.482a3.649,3.649,0,0,1-3.649-3.649V98.688a3.649,3.649,0,0,1,3.649-3.649h79.605a3.649,3.649,0,0,1,3.649,3.649v44.278A3.649,3.649,0,0,1,400.087,146.614Z" transform="translate(-316.833 -95.039)" fill="#407bff"/>
            <path id="Trazado_901526" data-name="Trazado 901526" d="M400.087,146.614H320.482a3.649,3.649,0,0,1-3.649-3.649V98.688a3.649,3.649,0,0,1,3.649-3.649h79.605a3.649,3.649,0,0,1,3.649,3.649v44.278A3.649,3.649,0,0,1,400.087,146.614Z" transform="translate(-316.833 -95.039)" fill="#fff" opacity="0.5"/>
          </g>
          <path id="Trazado_901527" data-name="Trazado 901527" d="M331.5,125.113c.377-.34,10.549-10.382,10.549-10.382l10.032,4.938,9.806-11.537,10.032,14.455L381.7,116.2" transform="translate(-318.43 -96.465)" fill="none" stroke="#263238" stroke-miterlimit="10" stroke-width="0.5"/>
          <rect id="Rectángulo_404732" data-name="Rectángulo 404732" width="4.703" height="10.42" transform="translate(11.505 33.168)" fill="#407bff"/>
          <rect id="Rectángulo_404733" data-name="Rectángulo 404733" width="4.703" height="17.307" transform="translate(21.188 26.283)" fill="#407bff"/>
          <rect id="Rectángulo_404734" data-name="Rectángulo 404734" width="4.703" height="15.567" transform="translate(31.056 28.023)" fill="#407bff"/>
          <rect id="Rectángulo_404735" data-name="Rectángulo 404735" width="4.703" height="25.325" transform="translate(41.1 18.265)" fill="#407bff"/>
          <rect id="Rectángulo_404736" data-name="Rectángulo 404736" width="4.703" height="11.896" transform="translate(51.252 31.694)" fill="#407bff"/>
          <path id="Trazado_901528" data-name="Trazado 901528" d="M334.6,125.554a2.527,2.527,0,1,1-2.527-2.527A2.527,2.527,0,0,1,334.6,125.554Z" transform="translate(-318.218 -98.087)" fill="#407bff"/>
          <path id="Trazado_901529" data-name="Trazado 901529" d="M345.467,115.227a2.527,2.527,0,1,1-2.527-2.527A2.527,2.527,0,0,1,345.467,115.227Z" transform="translate(-319.401 -96.962)" fill="#407bff"/>
          <path id="Trazado_901530" data-name="Trazado 901530" d="M356.809,119.883a2.527,2.527,0,1,1-2.527-2.527A2.527,2.527,0,0,1,356.809,119.883Z" transform="translate(-320.636 -97.469)" fill="#407bff"/>
          <path id="Trazado_901531" data-name="Trazado 901531" d="M367.813,107.821a2.527,2.527,0,1,1-2.527-2.527A2.527,2.527,0,0,1,367.813,107.821Z" transform="translate(-321.835 -96.156)" fill="#407bff"/>
          <path id="Trazado_901532" data-name="Trazado 901532" d="M379.071,124.043a2.527,2.527,0,1,1-2.527-2.527A2.527,2.527,0,0,1,379.071,124.043Z" transform="translate(-323.061 -97.922)" fill="#407bff"/>
          <rect id="Rectángulo_404737" data-name="Rectángulo 404737" width="4.703" height="17.86" transform="translate(61.304 25.729)" fill="#407bff"/>
          <rect id="Rectángulo_404738" data-name="Rectángulo 404738" width="4.703" height="17.307" transform="translate(21.188 26.283)" opacity="0.3"/>
          <rect id="Rectángulo_404739" data-name="Rectángulo 404739" width="4.703" height="25.325" transform="translate(41.1 18.265)" opacity="0.3"/>
          <rect id="Rectángulo_404740" data-name="Rectángulo 404740" width="4.703" height="17.86" transform="translate(61.304 25.729)" opacity="0.3"/>
          <rect id="Rectángulo_404741" data-name="Rectángulo 404741" width="4.703" height="11.896" transform="translate(71.708 31.694)" fill="#407bff"/>
          <line id="Línea_1589" data-name="Línea 1589" x2="10.793" y2="5.994" transform="translate(63.267 19.736)" fill="none" stroke="#263238" stroke-miterlimit="10" stroke-width="0.5"/>
          <path id="Trazado_901533" data-name="Trazado 901533" d="M390.682,116.878a2.527,2.527,0,1,1-2.527-2.527A2.527,2.527,0,0,1,390.682,116.878Z" transform="translate(-324.325 -97.142)" fill="#407bff"/>
          <path id="Trazado_901534" data-name="Trazado 901534" d="M402.162,123.6a2.527,2.527,0,1,1-2.527-2.526A2.527,2.527,0,0,1,402.162,123.6Z" transform="translate(-325.575 -97.875)" fill="#407bff"/>
        </g>
      </g>
    </g>
    <g id="Character_1" transform="translate(65.817 96.955)">
      <g id="Grupo_1106808" data-name="Grupo 1106808">
        <g id="Grupo_1106776" data-name="Grupo 1106776">
          <g id="Grupo_1106770" data-name="Grupo 1106770" transform="translate(95.08 208.061)">
            <g id="Grupo_1106768" data-name="Grupo 1106768" transform="translate(120.046)">
              <path id="Trazado_901535" data-name="Trazado 901535" d="M333.206,379.276V337.813a2.262,2.262,0,0,1,3.66-1.778l26.352,20.731a2.261,2.261,0,0,1,0,3.555l-26.352,20.731A2.261,2.261,0,0,1,333.206,379.276Z" transform="translate(-333.206 -335.548)" fill="#407bff"/>
            </g>
            <g id="Grupo_1106769" data-name="Grupo 1106769" transform="translate(0 10.672)">
              <rect id="Rectángulo_404742" data-name="Rectángulo 404742" width="124.32" height="24.65" fill="#407bff"/>
            </g>
          </g>
          <g id="Grupo_1106771" data-name="Grupo 1106771" transform="translate(0.281 11.345)">
            <path id="Trazado_901536" data-name="Trazado 901536" d="M208.695,346.87H92.1l13.31-12.555L92.1,321.6H208.695a90.773,90.773,0,1,0,0-181.546V114.79a116.04,116.04,0,0,1,0,232.08Z" transform="translate(-92.104 -114.79)" fill="#407bff"/>
          </g>
          <g id="Grupo_1106772" data-name="Grupo 1106772" transform="translate(0.281 11.345)" opacity="0.4">
            <path id="Trazado_901537" data-name="Trazado 901537" d="M208.695,346.87H92.1l13.31-12.555L92.1,321.6H208.695a90.773,90.773,0,1,0,0-181.546V114.79a116.04,116.04,0,0,1,0,232.08Z" transform="translate(-92.104 -114.79)" fill="#fff"/>
          </g>
          <g id="Grupo_1106774" data-name="Grupo 1106774" transform="translate(0 15.162)">
            <g id="Grupo_1106773" data-name="Grupo 1106773">
              <path id="Trazado_901538" data-name="Trazado 901538" d="M122.16,312.378a118.14,118.14,0,0,1,57.606-193.305L171.062,130l15.251,13.944A92.423,92.423,0,0,0,141.26,295.156Z" transform="translate(-91.789 -119.073)" fill="#407bff"/>
            </g>
            <path id="Trazado_901539" data-name="Trazado 901539" d="M128.411,335.37c.954-.239,32.438,0,32.438,0l-15.876-18.694-19.1,17.222Z" transform="translate(-95.501 -140.593)" fill="#407bff"/>
          </g>
          <g id="Grupo_1106775" data-name="Grupo 1106775" transform="translate(87.701)">
            <path id="Trazado_901540" data-name="Trazado 901540" d="M219.872,104.2l2.334,41.4a2.262,2.262,0,0,1-3.554,1.981l-27.478-19.215a2.262,2.262,0,0,1-.2-3.549l25.144-22.182A2.262,2.262,0,0,1,219.872,104.2Z" transform="translate(-190.208 -102.058)" fill="#407bff"/>
            <path id="Trazado_901541" data-name="Trazado 901541" d="M219.872,104.2l2.334,41.4a2.262,2.262,0,0,1-3.554,1.981l-27.478-19.215a2.262,2.262,0,0,1-.2-3.549l25.144-22.182A2.262,2.262,0,0,1,219.872,104.2Z" transform="translate(-190.208 -102.058)" fill="#fff" opacity="0.4"/>
          </g>
        </g>
        <g id="Grupo_1106807" data-name="Grupo 1106807" transform="translate(65.726 84.838)">
          <g id="Grupo_1106803" data-name="Grupo 1106803">
            <g id="Grupo_1106795" data-name="Grupo 1106795">
              <g id="Grupo_1106782" data-name="Grupo 1106782" transform="translate(6.367)">
                <path id="Trazado_901542" data-name="Trazado 901542" d="M207.8,203.246a13.22,13.22,0,0,1,6.179,11.272c-.6,4.554-2.181,7.778-3.411,12.205L198.49,200.067C201.311,200.627,202.581,200.047,207.8,203.246Z" transform="translate(-175.502 -197.569)" fill="#263238"/>
                <path id="Trazado_901543" data-name="Trazado 901543" d="M200.079,200.888c-4.731-2.2-9.373.4-12.08,2.2a13.6,13.6,0,0,0-4.8,10.056c0,3.63,0,8.031,2.2,9.923a5.877,5.877,0,0,0,4.511,1.452l17.955-16.569A20.955,20.955,0,0,0,200.079,200.888Z" transform="translate(-173.837 -197.567)" fill="#263238"/>
                <g id="Grupo_1106779" data-name="Grupo 1106779" transform="translate(7.945 4.988)">
                  <path id="Trazado_901544" data-name="Trazado 901544" d="M200.94,253.36c-1.38,1.424-2.641.949-4.483.2-10.964-3.943-7.72-9.237-7.72-9.237,2.08-2.441,2.171-5.36,1.413-9.809a2.732,2.732,0,0,1-.017-.391,2.874,2.874,0,0,1,.546-1.652,2.94,2.94,0,0,1,4.086-.767l0,0,4.908,1.4h0l.042.21c.013,2.434-.056,4.324-.039,5.81a3.552,3.552,0,0,1,.012.541h0a2.829,2.829,0,0,1,.022.548c.118,2.036,3.563,5.026,4.966,5.736C205.531,246.435,205.624,248.558,200.94,253.36Z" transform="translate(-182.336 -205.947)" fill="#b97964"/>
                  <path id="Trazado_901545" data-name="Trazado 901545" d="M199.91,233.083h0a.711.711,0,0,0,.044.219c.013,2.434-.056,4.324-.039,5.81a3.658,3.658,0,0,0,.012.541h0a4.16,4.16,0,0,0,.07.565h0a18.907,18.907,0,0,1-9.54-6.112h0a3.006,3.006,0,0,1,.5-1.643,2.948,2.948,0,0,1,4.079-.815Z" transform="translate(-182.572 -205.943)" opacity="0.2"/>
                  <path id="Trazado_901546" data-name="Trazado 901546" d="M186.219,214.513c.188,8.394.082,11.938,4.07,16.5,6.005,6.845,16.061,5.019,18.375-3.219,2.023-7.416,1.417-19.872-6.5-23.724S186.038,206.109,186.219,214.513Z" transform="translate(-182.111 -202.862)" fill="#b97964"/>
                  <path id="Trazado_901547" data-name="Trazado 901547" d="M182,223.41a6.8,6.8,0,0,0,3.825,3.531c2.182.748,3.637-2.74,3.065-5.039a4.5,4.5,0,0,0-4.8-3.331C181.916,218.823,181.03,221.338,182,223.41Z" transform="translate(-181.609 -204.57)" fill="#b97964"/>
                  <path id="Trazado_901548" data-name="Trazado 901548" d="M187.013,223.567a3.07,3.07,0,0,0-3.007-3.125" transform="translate(-181.87 -204.777)" fill="none" stroke="#000" stroke-linecap="round" stroke-linejoin="round" stroke-miterlimit="10" stroke-width="0.5" opacity="0.2"/>
                  <g id="Grupo_1106778" data-name="Grupo 1106778" transform="translate(13.194 10.416)">
                    <g id="Grupo_1106777" data-name="Grupo 1106777">
                      <path id="Trazado_901549" data-name="Trazado 901549" d="M198.491,219.806c-.034.895.387,1.667.94,1.726s1.028-.619,1.063-1.515-.387-1.667-.94-1.726S198.526,218.912,198.491,219.806Z" transform="translate(-196.641 -214.959)" fill="#263238"/>
                      <path id="Trazado_901550" data-name="Trazado 901550" d="M207.817,220.573c-.031.867.391,1.617.942,1.676s1.024-.6,1.055-1.465-.391-1.617-.942-1.675S207.848,219.706,207.817,220.573Z" transform="translate(-197.657 -215.047)" fill="#263238"/>
                      <path id="Trazado_901551" data-name="Trazado 901551" d="M196.77,216.146a.377.377,0,0,0,.307-.07,3.052,3.052,0,0,1,2.842-.54.38.38,0,0,0,.509-.24.452.452,0,0,0-.264-.545,3.806,3.806,0,0,0-3.6.641.424.424,0,0,0-.057.587A.438.438,0,0,0,196.77,216.146Z" transform="translate(-196.415 -214.552)" fill="#263238"/>
                      <path id="Trazado_901552" data-name="Trazado 901552" d="M210.922,216.094a.316.316,0,0,0,.208-.168.454.454,0,0,0-.163-.559,3.486,3.486,0,0,0-3.394-.511.383.383,0,0,0-.136.527.4.4,0,0,0,.507.215,2.8,2.8,0,0,1,2.687.437A.362.362,0,0,0,210.922,216.094Z" transform="translate(-197.61 -214.56)" fill="#263238"/>
                      <path id="Trazado_901553" data-name="Trazado 901553" d="M205.286,220.077a28.688,28.688,0,0,0,2.372,5.356.652.652,0,0,1-.389.968,4.185,4.185,0,0,1-2.261-.154Z" transform="translate(-197.351 -215.153)" fill="#a24e3f"/>
                    </g>
                    <path id="Trazado_901554" data-name="Trazado 901554" d="M199.325,218.268l1.972-.293S200.117,219.327,199.325,218.268Z" transform="translate(-196.732 -214.924)" fill="#263238"/>
                    <path id="Trazado_901555" data-name="Trazado 901555" d="M208.776,219.076l1.972-.293S209.569,220.135,208.776,219.076Z" transform="translate(-197.761 -215.012)" fill="#263238"/>
                  </g>
                </g>
                <g id="Grupo_1106780" data-name="Grupo 1106780" transform="translate(23.159 25.964)">
                  <path id="Trazado_901556" data-name="Trazado 901556" d="M203.771,229.24a19.815,19.815,0,0,0-1.631,2.357c-.159-.059-.316-.118-.471-.185-2.123-.853-2.827-1.951-2.963-2.909a2.951,2.951,0,0,1,.167-1.387,2.842,2.842,0,0,1,.358-.715,10.789,10.789,0,0,0,3.82,2.536C203.488,229.137,203.771,229.24,203.771,229.24Z" transform="translate(-198.683 -226.401)" fill="#263238"/>
                  <path id="Trazado_901557" data-name="Trazado 901557" d="M203.074,228.938l-.5.683c-2-.808-3.3-1.646-3.679-2.5a2.842,2.842,0,0,1,.358-.715A10.789,10.789,0,0,0,203.074,228.938Z" transform="translate(-198.706 -226.401)" fill="#fff"/>
                  <path id="Trazado_901558" data-name="Trazado 901558" d="M201.672,231.67c-2.123-.853-2.827-1.951-2.963-2.909a7.368,7.368,0,0,1,2.171,1.415A2.759,2.759,0,0,1,201.672,231.67Z" transform="translate(-198.685 -226.658)" fill="#de5753"/>
                </g>
                <path id="Trazado_901559" data-name="Trazado 901559" d="M189.047,216.494s4.8-5.478,4.945-10.166c0,0,17.157-3.807,15.575,11,0,0,3.709-12.806-10.309-14.9s-16.91,16.217-10.557,22.6C188.726,224.966,186.081,219.927,189.047,216.494Z" transform="translate(-174.088 -197.809)" fill="#263238"/>
                <path id="Trazado_901560" data-name="Trazado 901560" d="M172.7,204.8a6.941,6.941,0,1,0,6.917-7.533A7.261,7.261,0,0,0,172.7,204.8Z" transform="translate(-172.693 -197.264)" fill="#263238"/>
                <path id="Trazado_901561" data-name="Trazado 901561" d="M206.68,204.184a12.042,12.042,0,0,1,3.521,6.6c0,1.826-2.486,3.146-2.486,3.146l-3.037-3.982v3.5a11.068,11.068,0,0,1-9.55-7L197.9,201.5S205.03,202.754,206.68,204.184Z" transform="translate(-175.136 -197.725)" fill="#263238"/>
                <g id="Grupo_1106781" data-name="Grupo 1106781" transform="translate(4.616 11.09)">
                  <path id="Trazado_901562" data-name="Trazado 901562" d="M181.1,210.155a8.487,8.487,0,0,1-3.231,4.992,4.165,4.165,0,0,0,2.526-.61,6.3,6.3,0,0,1-.468,2.087,8.837,8.837,0,0,0,3.132-6.915Z" transform="translate(-177.873 -209.709)" fill="#263238"/>
                </g>
              </g>
              <g id="Grupo_1106789" data-name="Grupo 1106789" transform="translate(4.539 88.665)">
                <g id="Grupo_1106788" data-name="Grupo 1106788">
                  <g id="Grupo_1106787" data-name="Grupo 1106787" transform="translate(0.082 0.855)">
                    <path id="Trazado_901563" data-name="Trazado 901563" d="M278.539,400.4l-8.319.238s-14.85-28.59-21.982-44.623c-8.426-18.946-6.571-25.047-9.1-25.157-4.666-.2-52.279,21.688-64.206,9.546s5.327-41.4,5.327-41.4,26.577-4.1,28.745,2.379c.531,1.916,1.689,3.9,1.968,5.864.321,1.944.968,4.817.968,4.817h0c.63-.158,18.844-1.92,30.149-1.662a17.446,17.446,0,0,1,15.587,10.543C267.9,344.513,278.539,400.4,278.539,400.4Z" transform="translate(-170.733 -297.724)" fill="#263238"/>
                    <path id="Trazado_901564" data-name="Trazado 901564" d="M197.663,346.91s1.944,0,32.079-1.361c0,0-4.137,9.771-5.289,29.894-.474,8.277.847,35.09-.189,46.956.525.74,6.063,3.194,9.44.715,0,0,19.552-70.557,19.357-80.132s-11.3-12.394-11.3-12.394S220.381,342.983,197.663,346.91Z" transform="translate(-173.665 -301.303)" fill="#263238"/>
                    <path id="Trazado_901565" data-name="Trazado 901565" d="M225.893,339.229q6.187-2.494,12.147-5.5c6.887-3.473,15.356,1,16,8.682q.032.384.042.783c.1,3.889-3.374,18.47-8.341,34.325a26.733,26.733,0,0,1,.535-2.79c4.929-19.8,7.4-30.086,4.929-34.878a14.829,14.829,0,0,0-7.466-6.552l-26.927,13.123c-14.834.651-17.05.681-17.313.681A132.56,132.56,0,0,0,225.893,339.229Z" transform="translate(-173.866 -301.515)" opacity="0.2"/>
                    <g id="Grupo_1106784" data-name="Grupo 1106784" transform="translate(47.9 117.025)">
                      <g id="Grupo_1106783" data-name="Grupo 1106783">
                        <path id="Trazado_901566" data-name="Trazado 901566" d="M238.035,429.833a.751.751,0,0,0-.763-.782h-2.534c-.64-.015-1.336,1.126-1.726,1.633-1.684,2.187-2.889,1.316-4.612-.82-1.124-.159-1.459,1.128-1.559,1.473l-2.3,7.637a1.21,1.21,0,0,0,1.144,1.57l9.331.225,13.068.315c3.563.086,4.388-3.486,2.928-3.854-6.564-1.617-11.189-3.672-13.183-5.641C237.551,431.33,237.975,430.618,238.035,429.833Z" transform="translate(-224.486 -429.051)" fill="#407bff"/>
                        <path id="Trazado_901567" data-name="Trazado 901567" d="M240.656,432.816a3.428,3.428,0,0,0-2.438,1.488" transform="translate(-225.982 -429.461)" fill="none" stroke="#fff" stroke-linecap="round" stroke-linejoin="round" stroke-miterlimit="10" stroke-width="0.5"/>
                        <path id="Trazado_901568" data-name="Trazado 901568" d="M242.715,434.1a3.425,3.425,0,0,0-2.438,1.489" transform="translate(-226.206 -429.6)" fill="none" stroke="#fff" stroke-linecap="round" stroke-linejoin="round" stroke-miterlimit="10" stroke-width="0.5"/>
                        <path id="Trazado_901569" data-name="Trazado 901569" d="M245.26,435.4a3.428,3.428,0,0,0-2.438,1.488" transform="translate(-226.483 -429.743)" fill="none" stroke="#fff" stroke-linecap="round" stroke-linejoin="round" stroke-miterlimit="10" stroke-width="0.5"/>
                      </g>
                    </g>
                    <g id="Grupo_1106786" data-name="Grupo 1106786" transform="translate(97.971 97.105)">
                      <g id="Grupo_1106785" data-name="Grupo 1106785">
                        <path id="Trazado_901570" data-name="Trazado 901570" d="M290.109,406.7l-2.661.959a2.008,2.008,0,0,0-1.23,1.336c-.779,2.648-2.217,2.271-4.6.9-1.1.258-.952,1.579-.921,1.937l.618,7.951a1.21,1.21,0,0,0,1.289,1.125,1.191,1.191,0,0,0,.347-.076l8.781-3.165,12.3-4.432c3.352-1.208,2.829-4.837,1.336-4.652-6.7.866-11.76.624-14.331-.491C290.569,407.906,290.849,407.537,290.109,406.7Z" transform="translate(-280.677 -406.697)" fill="#407bff"/>
                        <path id="Trazado_901571" data-name="Trazado 901571" d="M293.953,408.654a3.428,3.428,0,0,0-1.735,2.27" transform="translate(-281.934 -406.91)" fill="none" stroke="#fff" stroke-linecap="round" stroke-linejoin="round" stroke-miterlimit="10" stroke-width="0.5"/>
                        <path id="Trazado_901572" data-name="Trazado 901572" d="M296.312,408.982a3.428,3.428,0,0,0-1.735,2.27" transform="translate(-282.191 -406.946)" fill="none" stroke="#fff" stroke-linecap="round" stroke-linejoin="round" stroke-miterlimit="10" stroke-width="0.5"/>
                        <path id="Trazado_901573" data-name="Trazado 901573" d="M299.044,409.324a3.428,3.428,0,0,0-1.735,2.27" transform="translate(-282.488 -406.983)" fill="none" stroke="#fff" stroke-linecap="round" stroke-linejoin="round" stroke-miterlimit="10" stroke-width="0.5"/>
                      </g>
                    </g>
                  </g>
                  <path id="Trazado_901574" data-name="Trazado 901574" d="M216.7,311.473l-3.825.368s-.315-2.63-.635-4.574c-.279-1.968-2.442-8.587-2.972-10.5-10.943,1.086-29.507.429-29.507.429s-16.753,30.986-4.846,43.1c7.155,7.262,28.229,3.011,43.833-3.369Z" transform="translate(-170.641 -296.765)" fill="#263238"/>
                  <path id="Trazado_901575" data-name="Trazado 901575" d="M215.985,312.074l-16.778,3.5s9.183-4.98,16.143-7C215.671,310.555,215.985,312.074,215.985,312.074Z" transform="translate(-173.752 -298.051)" opacity="0.3"/>
                </g>
              </g>
              <g id="Grupo_1106794" data-name="Grupo 1106794" transform="translate(0 38.866)">
                <g id="Grupo_1106790" data-name="Grupo 1106790" transform="translate(59.718 20.232)">
                  <path id="Trazado_901576" data-name="Trazado 901576" d="M244.227,267.735c.093-1.477-4.28,6.975-4.28,6.975l-7.383-5.212,5.878-5.912s5.968,3.9,5.877,4.023" transform="translate(-232.564 -263.585)" fill="#b97964"/>
                </g>
                <path id="Trazado_901577" data-name="Trazado 901577" d="M212.342,246.743a16.442,16.442,0,0,1,8.35,9.564,98.022,98.022,0,0,1,3.591,16.491l9.327-8.307,6.948,5.161s-9.126,13.83-15.267,19.223c-5.1,4.478-10.88-4.209-10.88-4.209L211.9,246.526Z" transform="translate(-170.595 -241.495)" fill="#407bff"/>
                <path id="Trazado_901578" data-name="Trazado 901578" d="M189.721,302.34l-2.006,31.446-17.984-2.144V328.41Z" transform="translate(-166.003 -247.573)" opacity="0.2"/>
                <g id="Grupo_1106791" data-name="Grupo 1106791" transform="translate(6.324 5.87)">
                  <path id="Trazado_901579" data-name="Trazado 901579" d="M181.338,297.15c-.7-7.977-3.536-22.6-8.414-37.949-1.587-4.993,4.083-10.512,4.083-10.512s3.66-.289,4.331-.364c.735-.086,1.491-.161,2.247-.225a107.388,107.388,0,0,1,15.443-.526c1.278.075,2.588.183,3.876.29.415.043,3.112.084,3.516.127,0,0,7.3,8.547,7.7,14.581.213,3.371,1.842,4.822,1.661,12.885-.032,5.476-4.006,13.453-4.368,21.151Z" transform="translate(-172.644 -247.467)" fill="#fff"/>
                </g>
                <path id="Trazado_901580" data-name="Trazado 901580" d="M190.537,270.116A130.608,130.608,0,0,0,188,246.609a1.581,1.581,0,0,0-1.741-1.227l-4.837,1.018c-4.737,1.263-7.278.581-9.914,4.1-.511.682-.938,5.925-.9,6.644a87.288,87.288,0,0,0,2.151,10.006c.82,3.307,1.789,7.022,2.716,10.522,1.189,4.462,2.181,5.624,2.564,7.054l-12.267,36.186a1.584,1.584,0,0,0,1.328,2.109l17.606,1.84a1.582,1.582,0,0,0,1.739-1.384C187.327,316.132,190.978,284.505,190.537,270.116Z" transform="translate(-165.562 -241.369)" fill="#407bff"/>
                <path id="Trazado_901581" data-name="Trazado 901581" d="M217.666,294.508s3.7-22.894,2.713-28.624-9.52-19.619-9.52-19.619l-3.9-.268-4.612-1.87S213,256.973,215.61,266.242c1.72,6.1-1.709,25.361-1.313,30.008l1.982,9.62,4.9-.218Z" transform="translate(-169.555 -241.234)" fill="#407bff"/>
                <g id="Grupo_1106792" data-name="Grupo 1106792" transform="translate(15.863 1.849)">
                  <path id="Trazado_901582" data-name="Trazado 901582" d="M189.27,243.145s4.789,9.452,2.977,33.236l-7.957-17.1,2.88-4.672-3.822-7.637s4.088-2.63,5.806-4.02Z" transform="translate(-183.349 -242.955)" fill="#407bff"/>
                </g>
                <g id="Grupo_1106793" data-name="Grupo 1106793" transform="translate(15.863 1.849)" opacity="0.2">
                  <path id="Trazado_901583" data-name="Trazado 901583" d="M189.27,243.145s4.789,9.452,2.977,33.236l-7.957-17.1,2.88-4.672-3.822-7.637s4.088-2.63,5.806-4.02Z" transform="translate(-183.349 -242.955)"/>
                </g>
                <path id="Trazado_901584" data-name="Trazado 901584" d="M215.769,276.519a30.2,30.2,0,0,0,1.456-10.086c-.325-4.84-.4-8.452-.4-8.452l-5.493-4.059.723-4.948s-2.648-1.626-5.109-3.293c-1.681-1.138-4.979-2.86-5.413-2.728,0,0,14.026,17.75,14.1,25.012C215.7,274.971,215.769,276.519,215.769,276.519Z" transform="translate(-169.466 -241.105)" fill="#407bff"/>
                <path id="Trazado_901585" data-name="Trazado 901585" d="M215.769,276.519a30.2,30.2,0,0,0,1.456-10.086c-.325-4.84-.4-8.452-.4-8.452l-5.493-4.059.723-4.948s-2.648-1.626-5.109-3.293c-1.681-1.138-4.979-2.86-5.413-2.728,0,0,14.026,17.75,14.1,25.012C215.7,274.971,215.769,276.519,215.769,276.519Z" transform="translate(-169.466 -241.105)" opacity="0.3"/>
                <path id="Trazado_901586" data-name="Trazado 901586" d="M220.536,292.122l1.913-17.657.708,18.23A7.5,7.5,0,0,1,220.536,292.122Z" transform="translate(-171.536 -244.538)" opacity="0.3"/>
                <path id="Trazado_901587" data-name="Trazado 901587" d="M203.8,247.463l-3.771-5.182-1.8,3.084-7.445-4.485-.925,1.849,2.645,7.759s6.61,2.705,6.96,2.705S203.8,247.463,203.8,247.463Z" transform="translate(-168.196 -240.88)" fill="#fff"/>
                <path id="Trazado_901588" data-name="Trazado 901588" d="M204.248,248.539l-1.543,3.817-3.837-3.817-2.612,4.483-3.9-1.911,4.157,3.292,2.405-4.912,4.4,4.145Z" transform="translate(-168.467 -241.714)" opacity="0.3"/>
                <path id="Trazado_901589" data-name="Trazado 901589" d="M182.311,286.933l-1.5-16.864-1.158,18.365,17.428,7.086Z" transform="translate(-167.083 -244.059)" opacity="0.3"/>
                <path id="Trazado_901590" data-name="Trazado 901590" d="M173.878,248.539a9.384,9.384,0,0,0-6.6,7.4c-1.064,6.044-2.474,36.26-1.271,38.173s34.878,12.743,34.878,12.743l3.605-9.352L179.053,285.2s.208-8.634.415-15.362c.11-3.557.219-6.581.3-7.514C180,259.626,173.878,248.539,173.878,248.539Z" transform="translate(-165.547 -241.714)" fill="#407bff"/>
                <path id="Trazado_901591" data-name="Trazado 901591" d="M208.738,304.144s10.585,2.541,13.04,4.655a3.475,3.475,0,0,1,1.059,2.473l-17.142.764Z" transform="translate(-169.92 -247.77)" fill="#b97964"/>
                <path id="Trazado_901592" data-name="Trazado 901592" d="M174.7,303.6c.34.127,14.9,5.31,14.9,5.31v1.828l-15.644-4.943Z" transform="translate(-166.463 -247.71)" opacity="0.3"/>
                <path id="Trazado_901593" data-name="Trazado 901593" d="M199.72,249.608c7.932,13.833,7.493,31.822,7.932,47.1" transform="translate(-169.269 -241.83)" fill="none" stroke="#000" stroke-linecap="round" stroke-linejoin="round" stroke-miterlimit="10" stroke-width="0.5" opacity="0.2"/>
              </g>
            </g>
            <g id="Grupo_1106802" data-name="Grupo 1106802" transform="translate(64.956 46.644)">
              <g id="Grupo_1106801" data-name="Grupo 1106801">
                <g id="Grupo_1106800" data-name="Grupo 1106800">
                  <g id="Grupo_1106799" data-name="Grupo 1106799">
                    <g id="Grupo_1106798" data-name="Grupo 1106798">
                      <g id="Grupo_1106797" data-name="Grupo 1106797">
                        <g id="Grupo_1106796" data-name="Grupo 1106796">
                          <path id="Trazado_901594" data-name="Trazado 901594" d="M239.47,262.929a6.7,6.7,0,0,1-.914-4.46c.523-2.172.362-4.046.863-5.634s1.391.475,1.641,1.669.548,2.544,1.414,2.21,5.9-6.528,7.152-6.854.752.93.752.93,1.263-1.472,1.982-1.13c.187.088.478.6.007,1.359-1.059,1.712-3.464,5.19-3.464,5.19.134-.2,3.41-4.284,3.981-4.831.746-.715,1.461-.672,1.862-.226.57.634-3.319,5.832-3.33,6.166,0,0,2.139-3.067,3.233-2.949s-.147,2.123-1.577,3.683c-1.311,1.429-3.508,4.578-4.982,5.9-1.816,1.632-3.4,2.32-5.5,1.4A7.779,7.779,0,0,1,239.47,262.929Z" transform="translate(-238.441 -249.609)" fill="#b97964"/>
                        </g>
                      </g>
                    </g>
                  </g>
                </g>
              </g>
              <path id="Trazado_901595" data-name="Trazado 901595" d="M251.269,251.114q-1.473,1.807-2.778,3.744" transform="translate(-239.536 -249.773)" fill="none" stroke="#000" stroke-linecap="round" stroke-linejoin="round" stroke-miterlimit="10" stroke-width="0.5" opacity="0.3"/>
              <path id="Trazado_901596" data-name="Trazado 901596" d="M251.541,259.186a10.333,10.333,0,0,0-4.7-3.623" transform="translate(-239.356 -250.258)" fill="none" stroke="#000" stroke-linecap="round" stroke-linejoin="round" stroke-miterlimit="10" stroke-width="0.5" opacity="0.3"/>
              <path id="Trazado_901597" data-name="Trazado 901597" d="M243.251,258.67a3.547,3.547,0,0,1,.207,4.522" transform="translate(-238.965 -250.596)" fill="none" stroke="#000" stroke-linecap="round" stroke-linejoin="round" stroke-miterlimit="10" stroke-width="0.5" opacity="0.3"/>
            </g>
          </g>
          <g id="Grupo_1106806" data-name="Grupo 1106806" transform="translate(31.94 72.398)">
            <g id="Grupo_1106805" data-name="Grupo 1106805" transform="translate(21.424)">
              <g id="Grupo_1106804" data-name="Grupo 1106804">
                <path id="Trazado_901598" data-name="Trazado 901598" d="M253.744,308.772h-27.46a.784.784,0,0,1-.851-.694.559.559,0,0,1,.044-.21l12.216-28.006a2.386,2.386,0,0,1,2.271-1.35h27.477a.773.773,0,0,1,.841.675.555.555,0,0,1-.05.229l-12.216,28.006A2.408,2.408,0,0,1,253.744,308.772Z" transform="translate(-225.433 -278.51)" fill="#263238"/>
                <path id="Trazado_901599" data-name="Trazado 901599" d="M267.441,278.51H239.964a2.387,2.387,0,0,0-2.271,1.351l-12.216,28.006a.576.576,0,0,0-.044.21.783.783,0,0,0,.851.694h27.46a2.4,2.4,0,0,0,2.271-1.35l12.216-28.006a.559.559,0,0,0,.05-.229A.771.771,0,0,0,267.441,278.51Z" transform="translate(-225.433 -278.51)" fill="#fff" opacity="0.7"/>
                <path id="Trazado_901600" data-name="Trazado 901600" d="M253.041,295.852c-.593,1.344-1.8,2.267-2.693,2.079s-1.136-1.412-.56-2.761,1.793-2.249,2.689-2.062S253.642,294.472,253.041,295.852Z" transform="translate(-228.051 -280.097)" fill="#fff"/>
              </g>
              <path id="Trazado_901601" data-name="Trazado 901601" d="M240.127,278.51h-.163a2.387,2.387,0,0,0-2.271,1.351l-12.216,28.006a.576.576,0,0,0-.044.21.783.783,0,0,0,.851.694h.88Z" transform="translate(-225.433 -278.51)" opacity="0.3"/>
            </g>
            <path id="Trazado_901602" data-name="Trazado 901602" d="M201.391,312.4v2.268l21.876-2.23.328-2.878Z" transform="translate(-201.391 -281.891)" fill="#263238"/>
            <path id="Trazado_901603" data-name="Trazado 901603" d="M201.391,312.4v2.268l21.876-2.23.328-2.878Z" transform="translate(-201.391 -281.891)" fill="#fff" opacity="0.7"/>
          </g>
        </g>
        <path id="Trazado_901604" data-name="Trazado 901604" d="M134.494,147.993h16.071a3.625,3.625,0,0,0,3.625-3.625V133.287S140.471,142.07,134.494,147.993Z" transform="translate(-96.44 -105.459)" opacity="0.3"/>
      </g>
      <path id="Trazado_901605" data-name="Trazado 901605" d="M340.008,204.171a4.073,4.073,0,0,0-2.074,3.476c.006,2.407,3.027,6.521,2.868,7.883s-.318,5.458,1.113,7.226,8.678,3.232,8.671,3.18-.809-5.067-1.8-10.407-8.778-11.358-8.778-11.358" transform="translate(-118.595 -113.179)" opacity="0.2"/>
    </g>
    <g id="Plant" transform="translate(60.519 277.033)">
      <g id="Grupo_1106826" data-name="Grupo 1106826">
        <g id="Grupo_1106825" data-name="Grupo 1106825">
          <g id="Grupo_1106809" data-name="Grupo 1106809" transform="translate(20.633)">
            <path id="Trazado_901606" data-name="Trazado 901606" d="M99.019,304.144a55.9,55.9,0,0,0-9.363,55.509c7.982-7.124,13.6-17.984,13.959-27.482S101.485,313.323,99.019,304.144Z" transform="translate(-86.044 -304.144)" fill="#407bff"/>
          </g>
          <g id="Grupo_1106810" data-name="Grupo 1106810" transform="translate(25.45 42.773)">
            <path id="Trazado_901607" data-name="Trazado 901607" d="M97.374,366.611a36.772,36.772,0,0,0-5.822,22.7c6.924-2.41,13.027-10.231,16.686-16.583s5.7-13.488,7.567-20.578A36.77,36.77,0,0,0,97.374,366.611Z" transform="translate(-91.449 -352.145)" fill="#407bff"/>
          </g>
          <g id="Grupo_1106812" data-name="Grupo 1106812" transform="translate(21.956 25.906)">
            <g id="Grupo_1106811" data-name="Grupo 1106811">
              <path id="Trazado_901608" data-name="Trazado 901608" d="M95.282,333.453a211.964,211.964,0,0,0-7.753,56.914q.008,8.174.652,16.328c.033.426.7.43.668,0a211.353,211.353,0,0,1,3.342-57.373q1.564-7.914,3.734-15.691a.334.334,0,0,0-.644-.178Z" transform="translate(-87.529 -333.217)" fill="#263238"/>
            </g>
          </g>
          <g id="Grupo_1106814" data-name="Grupo 1106814" transform="translate(22.22 50.56)">
            <g id="Grupo_1106813" data-name="Grupo 1106813">
              <path id="Trazado_901609" data-name="Trazado 901609" d="M88.5,396.54a175.236,175.236,0,0,1,20.147-35.174c.254-.348-.326-.682-.577-.338a175.873,175.873,0,0,0-20.214,35.334c-.167.4.479.569.644.178Z" transform="translate(-87.824 -360.884)" fill="#263238"/>
            </g>
          </g>
          <g id="Grupo_1106815" data-name="Grupo 1106815" transform="translate(0 55.552)">
            <path id="Trazado_901610" data-name="Trazado 901610" d="M78.258,378.548a30.663,30.663,0,0,1,4.855,18.924c-5.773-2.009-10.862-8.53-13.914-13.828s-4.758-11.246-6.31-17.159A30.668,30.668,0,0,1,78.258,378.548Z" transform="translate(-62.889 -366.485)" fill="#407bff"/>
          </g>
          <g id="Grupo_1106817" data-name="Grupo 1106817" transform="translate(5.531 61.994)">
            <g id="Grupo_1106816" data-name="Grupo 1106816">
              <path id="Trazado_901611" data-name="Trazado 901611" d="M86.3,402.621a143.336,143.336,0,0,0-16.563-28.762c-.251-.344-.831-.011-.577.338a142.6,142.6,0,0,1,16.5,28.6c.165.39.813.218.645-.178Z" transform="translate(-69.096 -373.715)" fill="#263238"/>
            </g>
          </g>
          <g id="Grupo_1106819" data-name="Grupo 1106819" transform="translate(22.351 68.828)">
            <g id="Grupo_1106818" data-name="Grupo 1106818">
              <path id="Trazado_901612" data-name="Trazado 901612" d="M88.54,406.933c8.147-8.382,16.465-16.594,24.612-24.976.3-.308-.172-.782-.472-.472-8.147,8.382-16.465,16.594-24.612,24.976-.3.308.172.782.472.472Z" transform="translate(-87.971 -381.384)" fill="#263238"/>
            </g>
          </g>
          <g id="Grupo_1106820" data-name="Grupo 1106820" transform="translate(28.576 65.501)">
            <path id="Trazado_901613" data-name="Trazado 901613" d="M114.168,377.65a160.359,160.359,0,0,0-19.211,22.277H96.25a19.086,19.086,0,0,0,17.918-22.277Z" transform="translate(-94.957 -377.65)" fill="#407bff"/>
          </g>
          <g id="Grupo_1106824" data-name="Grupo 1106824" transform="translate(4.693 24.186)">
            <g id="Grupo_1106822" data-name="Grupo 1106822" transform="translate(9.524 24.598)">
              <g id="Grupo_1106821" data-name="Grupo 1106821">
                <path id="Trazado_901614" data-name="Trazado 901614" d="M78.895,359.386q4.553,7.445,8.573,15.195c.2.382.775.045.577-.338q-4.018-7.746-8.573-15.195c-.225-.366-.8-.031-.577.338Z" transform="translate(-78.844 -358.89)" fill="#263238"/>
              </g>
            </g>
            <g id="Grupo_1106823" data-name="Grupo 1106823">
              <path id="Trazado_901615" data-name="Trazado 901615" d="M70.473,331.286a88.4,88.4,0,0,0-2.317,17.4c-.012,5.421,1.642,10.711,4.723,14.343s9.3,5.224,11.806,3.145Z" transform="translate(-68.156 -331.286)" fill="#407bff"/>
            </g>
          </g>
        </g>
        <rect id="Rectángulo_404743" data-name="Rectángulo 404743" width="30.876" height="5.723" transform="translate(6.852 96.747)" fill="#263238"/>
        <path id="Trazado_901616" data-name="Trazado 901616" d="M96.847,439.361H77.674l-3.484-21.7H99.6Z" transform="translate(-64.12 -316.507)" fill="#263238"/>
        <path id="Trazado_901617" data-name="Trazado 901617" d="M74.446,419.256h25l-.311,2.456H74.84Z" transform="translate(-64.148 -316.68)" opacity="0.2"/>
      </g>
    </g>
    <g id="Screen" transform="translate(70.684 76.95)">
      <g id="Grupo_1106831" data-name="Grupo 1106831">
        <g id="Grupo_1106829" data-name="Grupo 1106829">
          <g id="Grupo_1106827" data-name="Grupo 1106827">
            <path id="Trazado_901618" data-name="Trazado 901618" d="M139.661,138.272H78.694a4.4,4.4,0,0,1-4.4-4.4V84.006a4.4,4.4,0,0,1,4.4-4.4h60.967a4.4,4.4,0,0,1,4.4,4.4v49.867A4.4,4.4,0,0,1,139.661,138.272Z" transform="translate(-74.296 -79.608)" fill="#407bff"/>
            <path id="Trazado_901619" data-name="Trazado 901619" d="M139.661,138.272H78.694a4.4,4.4,0,0,1-4.4-4.4V84.006a4.4,4.4,0,0,1,4.4-4.4h60.967a4.4,4.4,0,0,1,4.4,4.4v49.867A4.4,4.4,0,0,1,139.661,138.272Z" transform="translate(-74.296 -79.608)" fill="#fff" opacity="0.5"/>
            <path id="Trazado_901620" data-name="Trazado 901620" d="M144.06,89.838H74.3V83.731a4.123,4.123,0,0,1,4.123-4.123H140.01a4.051,4.051,0,0,1,4.051,4.051v6.179Z" transform="translate(-74.296 -79.608)" fill="#407bff"/>
          </g>
          <g id="Grupo_1106828" data-name="Grupo 1106828" transform="translate(48.665 3.628)">
            <path id="Trazado_901621" data-name="Trazado 901621" d="M147.619,85.912a2.233,2.233,0,1,1-2.233-2.233A2.233,2.233,0,0,1,147.619,85.912Z" transform="translate(-130.46 -83.679)" fill="#fff" opacity="0.5"/>
            <path id="Trazado_901622" data-name="Trazado 901622" d="M140.5,85.912a2.233,2.233,0,1,1-2.233-2.233A2.233,2.233,0,0,1,140.5,85.912Z" transform="translate(-129.685 -83.679)" fill="#fff" opacity="0.5"/>
            <path id="Trazado_901623" data-name="Trazado 901623" d="M133.375,85.912a2.233,2.233,0,1,1-2.233-2.233A2.233,2.233,0,0,1,133.375,85.912Z" transform="translate(-128.909 -83.679)" fill="#fff" opacity="0.5"/>
          </g>
        </g>
        <g id="Grupo_1106830" data-name="Grupo 1106830" transform="translate(16.096 16.595)">
          <path id="Trazado_901624" data-name="Trazado 901624" d="M112.21,116.051l6.051-16.622a17.686,17.686,0,0,1,10.166,9.557Z" transform="translate(-94.521 -98.361)" fill="#f5f5f5"/>
          <path id="Trazado_901625" data-name="Trazado 901625" d="M110.048,115.92l5.156,16.921a17.689,17.689,0,1,1,.815-33.572Z" transform="translate(-92.359 -98.231)" fill="#407bff"/>
          <path id="Trazado_901626" data-name="Trazado 901626" d="M112.21,117.228l16.25-6.988a17.688,17.688,0,0,1-11.027,23.888Z" transform="translate(-94.521 -99.539)" fill="#407bff"/>
          <path id="Trazado_901627" data-name="Trazado 901627" d="M112.21,117.228l16.25-6.988a17.688,17.688,0,0,1-11.027,23.888Z" transform="translate(-94.521 -99.539)" opacity="0.3"/>
        </g>
      </g>
    </g>
    <g id="Character_2_00000083798181020747381990000002522276009728083075_" transform="translate(248.395 122.503)">
      <g id="Grupo_1106861" data-name="Grupo 1106861">
        <path id="Trazado_901628" data-name="Trazado 901628" d="M382.772,184.235c-2.99.6-4.176,3-7.176,9.27-3.781,7.9-9.293,22.141-10.542,22.26-1.755.168-24.2-8.578-24.2-8.578l-3.49,3.944s11.753,15.716,30.357,20.705c3.343.9,7.562-2.889,11.585-8.065.789-1.006,1.558-2.07,2.327-3.165a161.385,161.385,0,0,0,11.112-19.2l-9.978-17.176Z" transform="translate(-330.559 -136.555)" fill="#407bff"/>
        <path id="Trazado_901629" data-name="Trazado 901629" d="M386.638,195.483a111.32,111.32,0,0,1-4.5,13.67,7.788,7.788,0,0,0-.506,4.153,61.161,61.161,0,0,0,2.8,10.633c.648,1.883,3.556,1.747,3.646,3.735.789-1.006,1.558-2.071,2.327-3.165l1.715-6.783Z" transform="translate(-335.369 -137.78)" opacity="0.2"/>
        <path id="Trazado_901630" data-name="Trazado 901630" d="M368.25,218.535a1.972,1.972,0,0,0,1.36-2.434l-7.5-31.55a3.647,3.647,0,0,0-3.352-2.6l-24.047-.5a1.972,1.972,0,0,0-2.14,2.494l7.5,31.55a3.659,3.659,0,0,0,3.352,2.613l24.047.493A1.953,1.953,0,0,0,368.25,218.535Z" transform="translate(-330.028 -136.25)" fill="#263238"/>
        <path id="Trazado_901631" data-name="Trazado 901631" d="M368.25,218.535a1.972,1.972,0,0,0,1.36-2.434l-7.5-31.55a3.647,3.647,0,0,0-3.352-2.6l-24.047-.5a1.972,1.972,0,0,0-2.14,2.494l7.5,31.55a3.659,3.659,0,0,0,3.352,2.613l24.047.493A1.953,1.953,0,0,0,368.25,218.535Z" transform="translate(-330.028 -136.25)" fill="#fff" opacity="0.2"/>
        <path id="Trazado_901632" data-name="Trazado 901632" d="M365.482,218.479a1.972,1.972,0,0,0,1.362-2.434l-7.5-31.55A3.668,3.668,0,0,0,356,181.883l-24.057-.493a1.972,1.972,0,0,0-2.139,2.494l7.513,31.55a3.668,3.668,0,0,0,3.342,2.613l24.057.493A1.979,1.979,0,0,0,365.482,218.479Z" transform="translate(-329.727 -136.244)" fill="#263238"/>
        <path id="Trazado_901633" data-name="Trazado 901633" d="M365.482,218.479a1.972,1.972,0,0,0,1.362-2.434l-7.5-31.55A3.668,3.668,0,0,0,356,181.883l-24.057-.493a1.972,1.972,0,0,0-2.139,2.494l7.513,31.55a3.668,3.668,0,0,0,3.342,2.613l24.057.493A1.979,1.979,0,0,0,365.482,218.479Z" transform="translate(-329.727 -136.244)" fill="#fff" opacity="0.3"/>
        <path id="Trazado_901634" data-name="Trazado 901634" d="M347.1,199.463a1.811,1.811,0,0,1,1.974-1.632,3.289,3.289,0,0,1,2.99,2.407,1.814,1.814,0,0,1,.066.7,1.8,1.8,0,0,1-1.968,1.606,3.3,3.3,0,0,1-3-2.4A1.806,1.806,0,0,1,347.1,199.463Z" transform="translate(-331.618 -138.035)" fill="#fff" opacity="0.2"/>
        <path id="Trazado_901635" data-name="Trazado 901635" d="M335.911,203.465c.473-.039,2.484.956,3.431.3s.059-1.2.059-1.2c-1.735-.424-3.638-2.593-4.693-1.972s-2.8,1.4-2.544,2.386a21.94,21.94,0,0,0,1.045,2.672,1.549,1.549,0,0,0-.1,1.46,1.725,1.725,0,0,0,1.272,1.055,1.647,1.647,0,0,0-.473,1.262c.078.749,2.05,1.735,2.05,1.735s-.385,1.173.069,1.627a3.164,3.164,0,0,0,2.761.631c1.154-.276,1.943-.67,1.863-1.834s-2.159-1.164-2.159-1.164,3.9-1.183,3.076-1.923-3.944-.65-3.944-.65,5.285-1.045,4.447-2.13-6.1-.789-6.1-.789S335.438,203.5,335.911,203.465Z" transform="translate(-329.989 -138.324)" fill="#e9b376"/>
        <g id="Grupo_1106859" data-name="Grupo 1106859" transform="translate(26.73)">
          <g id="Grupo_1106834" data-name="Grupo 1106834" transform="translate(12.28 252.314)">
            <g id="Grupo_1106833" data-name="Grupo 1106833">
              <g id="Grupo_1106832" data-name="Grupo 1106832">
                <path id="Trazado_901636" data-name="Trazado 901636" d="M385.347,413.878l2.248,19.144-6.869.95L373.5,415.981Z" transform="translate(-373.504 -413.878)" fill="#e9b376"/>
              </g>
            </g>
          </g>
          <path id="Trazado_901637" data-name="Trazado 901637" d="M373.773,430.886c-.108-1.168-.025-2.143,1.342-2.214l1.935-.1a3.455,3.455,0,0,1,1.841.822c4.437,2.831,6.257-.824,7.979-.822,2.213,0,.789,6.485.894,6.826l2.418,7.528c.21.629-.215,1.986-.949,2.165a1.6,1.6,0,0,1-.4.045H363.207c-4.075,0-4.122-4.578-2.443-4.9,7.548-1.428,10.526-3.694,13.014-5.35A28.881,28.881,0,0,0,373.773,430.886Z" transform="translate(-359.724 -163.165)" fill="#407bff"/>
          <path id="Trazado_901638" data-name="Trazado 901638" d="M363.233,446.917h25.623a1.6,1.6,0,0,0,.4-.045c.5-.122.848-.786.96-1.4l-.011-.573H359.961A3.221,3.221,0,0,0,363.233,446.917Z" transform="translate(-359.75 -164.943)" fill="#fff" opacity="0.4"/>
          <g id="Grupo_1106836" data-name="Grupo 1106836" transform="translate(9.954 273.926)">
            <g id="Grupo_1106835" data-name="Grupo 1106835">
              <path id="Trazado_901639" data-name="Trazado 901639" d="M370.991,438.7a6.712,6.712,0,0,1,.86.87c.031.037.061.076.091.114l.007.009.048.065c.061.082.119.166.176.25.113.168.217.343.314.521a.334.334,0,1,0,.577-.337,6.829,6.829,0,0,0-1.6-1.964.341.341,0,0,0-.472,0,.338.338,0,0,0,0,.471Z" transform="translate(-370.895 -438.132)" fill="#263238"/>
            </g>
          </g>
          <g id="Grupo_1106838" data-name="Grupo 1106838" transform="translate(12.311 272.614)">
            <g id="Grupo_1106837" data-name="Grupo 1106837">
              <path id="Trazado_901640" data-name="Trazado 901640" d="M373.635,437.227a7.4,7.4,0,0,1,.8.814c.029.036.059.07.087.107l.038.048c.014.018.042.054.013.017.055.073.11.146.162.221q.166.235.313.484a.337.337,0,0,0,.457.119.341.341,0,0,0,.12-.457,7.539,7.539,0,0,0-1.517-1.825.34.34,0,0,0-.472,0,.337.337,0,0,0,0,.472Z" transform="translate(-373.539 -436.659)" fill="#263238"/>
            </g>
          </g>
          <g id="Grupo_1106840" data-name="Grupo 1106840" transform="translate(13.986 271.475)">
            <g id="Grupo_1106839" data-name="Grupo 1106839">
              <path id="Trazado_901641" data-name="Trazado 901641" d="M375.581,436a3.192,3.192,0,0,1,.395.234c.031.021.061.045.092.068s-.057-.045-.011-.008l.048.039c.058.048.114.1.168.151s.105.106.155.162c.022.025.045.051.066.078s.025.033.038.047c-.009-.012-.018-.024-.028-.036l.024.032a2.708,2.708,0,0,1,.233.374.336.336,0,0,0,.457.119.342.342,0,0,0,.12-.457,3.259,3.259,0,0,0-1.421-1.381.334.334,0,0,0-.338.577Z" transform="translate(-375.419 -435.381)" fill="#263238"/>
            </g>
          </g>
          <g id="Grupo_1106842" data-name="Grupo 1106842" transform="translate(13.983 269.08)">
            <g id="Grupo_1106841" data-name="Grupo 1106841">
              <path id="Trazado_901642" data-name="Trazado 901642" d="M375.751,433.36c.175,0,.349.011.522.029.143.014.261.031.429.063a5.746,5.746,0,0,1,.963.275.335.335,0,0,0,.411-.233.343.343,0,0,0-.233-.411,6.08,6.08,0,0,0-2.092-.39.334.334,0,1,0,0,.667Z" transform="translate(-375.416 -432.693)" fill="#263238"/>
            </g>
          </g>
          <g id="Grupo_1106843" data-name="Grupo 1106843" transform="translate(21.524 265.647)" opacity="0.3">
            <path id="Trazado_901643" data-name="Trazado 901643" d="M383.888,433.182a1.949,1.949,0,0,0,.948,1.723,2.922,2.922,0,0,0,1.336.174l4.079-.109.017-.036c.215-1.772.791-6.1-.895-6.093-1.327,0-2.72,2.481-5.494,1.756C383.9,431.535,383.861,432.73,383.888,433.182Z" transform="translate(-383.878 -428.841)"/>
          </g>
          <g id="Grupo_1106844" data-name="Grupo 1106844" transform="translate(2.814 121.689)">
            <path id="Trazado_901644" data-name="Trazado 901644" d="M362.976,338.452c1.223-11.072,16.651-69.833,16.651-69.833l19.615-.477,30.178-.853s1.743,15.75,1.765,36.377c0,0-1.461,88.068-2.655,109.028l-16.573.64c-1.884-16.47-4.378-67.856-4.378-67.856-1.136-9.31-2.161-36.792-2.975-44.639-.339-1.737-.671-3.487-.994-5.23-3.219,8.511-17.991,44.924-19.132,50.145l6.061,69.258-17.826-.682S361.754,349.524,362.976,338.452Z" transform="translate(-362.881 -267.289)" fill="#263238"/>
            <path id="Trazado_901645" data-name="Trazado 901645" d="M391.744,271.322a18.437,18.437,0,0,1-12.666,11.843.249.249,0,1,0,.139.478,18.965,18.965,0,0,0,13.032-12.189c.1-.306-.407-.437-.505-.132Z" transform="translate(-364.625 -267.709)"/>
            <path id="Trazado_901646" data-name="Trazado 901646" d="M409.613,272.159q-.531,7.417-1.053,14.842c-.017.319-.539.319-.522,0q.278-3.8.539-7.625c-1.289.941-2.8-.2-3.219-1.46a11.715,11.715,0,0,1,.11-6.508c.085-.311.59-.176.505.127a13.242,13.242,0,0,0-.43,4.379,5.709,5.709,0,0,0,.5,2.3,1.551,1.551,0,0,0,2.292.718.259.259,0,0,1,.278-.04c.16-2.241.32-4.49.48-6.731C409.107,271.84,409.629,271.84,409.613,272.159Z" transform="translate(-367.462 -267.718)"/>
            <path id="Trazado_901647" data-name="Trazado 901647" d="M423.98,271.221c-.074,6.555,5.257,12.045,12.151,12.56.331.025.329-.463,0-.487-6.615-.495-11.706-5.8-11.636-12.073,0-.314-.511-.315-.515,0Z" transform="translate(-369.535 -267.692)"/>
          </g>
          <g id="Grupo_1106846" data-name="Grupo 1106846" transform="translate(54.758 253.241)">
            <g id="Grupo_1106845" data-name="Grupo 1106845">
              <path id="Trazado_901648" data-name="Trazado 901648" d="M421.174,414.919l2.919,19.649,6.981.324,2.26-18.943Z" transform="translate(-421.174 -414.919)" fill="#263238"/>
            </g>
          </g>
          <g id="Grupo_1106847" data-name="Grupo 1106847" transform="translate(54.85 267.666)">
            <path id="Trazado_901649" data-name="Trazado 901649" d="M437.029,445.454H421.415a3.326,3.326,0,0,1,.049-2.2c.06-.25.137-.524.238-.823.005-.015.009-.029.014-.045.146-.443.314-.988.492-1.577a58.258,58.258,0,0,0,1.2-7.915s2.952-2.719,5.992-1.444c2.666,1.117,2.252,2.534,2.252,2.534s.043,3.659,2.065,5.314c1.25,1.023,2.493,1.815,3.091,3.088a3.816,3.816,0,0,1,.263.766c.007.033.014.068.02.1A5.474,5.474,0,0,1,437.029,445.454Z" transform="translate(-421.277 -431.107)" fill="#407bff"/>
          </g>
          <path id="Trazado_901650" data-name="Trazado 901650" d="M421.463,444.735a3.327,3.327,0,0,0-.049,2.2h15.614a5.479,5.479,0,0,0,.063-2.2Z" transform="translate(-366.427 -164.925)" fill="#fff" opacity="0.4"/>
          <g id="Grupo_1106849" data-name="Grupo 1106849" transform="translate(61.164 272.284)">
            <g id="Grupo_1106848" data-name="Grupo 1106848">
              <path id="Trazado_901651" data-name="Trazado 901651" d="M431.578,437.13a2.24,2.24,0,0,0-2.82.16c-.212.19-.538-.109-.326-.3a2.742,2.742,0,0,1,3.472-.16c.234.167-.094.464-.325.3Z" transform="translate(-428.363 -436.289)" fill="#263238"/>
            </g>
          </g>
          <g id="Grupo_1106851" data-name="Grupo 1106851" transform="translate(61.604 273.622)">
            <g id="Grupo_1106850" data-name="Grupo 1106850">
              <path id="Trazado_901652" data-name="Trazado 901652" d="M432.072,438.631a2.24,2.24,0,0,0-2.82.16c-.212.19-.538-.109-.326-.3a2.742,2.742,0,0,1,3.472-.16c.234.167-.094.463-.325.3Z" transform="translate(-428.857 -437.791)" fill="#263238"/>
            </g>
          </g>
          <g id="Grupo_1106853" data-name="Grupo 1106853" transform="translate(62.047 274.852)">
            <g id="Grupo_1106852" data-name="Grupo 1106852">
              <path id="Trazado_901653" data-name="Trazado 901653" d="M432.569,440.011a2.239,2.239,0,0,0-2.82.16c-.212.19-.538-.109-.326-.3a2.742,2.742,0,0,1,3.472-.16c.234.167-.094.463-.325.3Z" transform="translate(-429.354 -439.171)" fill="#263238"/>
            </g>
          </g>
          <path id="Trazado_901654" data-name="Trazado 901654" d="M381.563,254.766c-2.78,4.567-2.78,8.235-.13,9.169,0,0,24.085,4.084,48.722,1.285,5.932.327,3.029-5.172,3.029-5.172l.132-76.038c-18.722-3.974-41.374-.3-45.959,0Z" transform="translate(-361.873 -136.331)" fill="#407bff"/>
          <path id="Trazado_901655" data-name="Trazado 901655" d="M439.811,230.778V205.629s3.686,25.776,1.83,32.17Z" transform="translate(-368.446 -138.885)" opacity="0.2"/>
          <g id="Grupo_1106857" data-name="Grupo 1106857" transform="translate(31.932)">
            <path id="Trazado_901656" data-name="Trazado 901656" d="M400.968,144.767s-9.1-5.122-3.7-10.617c4.259-4.333,8.026-3.7,13.724-2.664,13.962,2.542,13.149,8.36,13.149,8.36Z" transform="translate(-395.559 -130.728)" fill="#263238"/>
            <g id="Grupo_1106854" data-name="Grupo 1106854" transform="translate(11.029 24.862)">
              <path id="Trazado_901657" data-name="Trazado 901657" d="M420.095,177.1s-.747-5.355,2.389-14.638c0-.01-.486-.251-.486-.261.433-1.3.886-2.5,1.309-3.533a.163.163,0,0,0,.01-.04l-13.206,7.388c.171,3.02-1.161,8.783-1.911,11.207,0,0-1.817,4.373,4.085,4.824C416.6,182.377,420.095,177.1,420.095,177.1Z" transform="translate(-407.936 -158.628)" fill="#e9b376"/>
              <path id="Trazado_901658" data-name="Trazado 901658" d="M409.847,171.486l7.475-1.346c-.772,2.272-2.927,4.913-8.088,4.911A22.859,22.859,0,0,0,409.847,171.486Z" transform="translate(-408.077 -159.882)" opacity="0.2"/>
            </g>
            <g id="Grupo_1106855" data-name="Grupo 1106855" transform="translate(2.747 3.606)">
              <path id="Trazado_901659" data-name="Trazado 901659" d="M422.676,150.016c-1.222,8.115-1.747,12.717-6.244,16.5-6.763,5.694-16.294,1.179-17.523-7.163-1.107-7.508,1.077-19.519,9.361-21.982A11.322,11.322,0,0,1,422.676,150.016Z" transform="translate(-398.641 -135.004)" fill="#e9b376"/>
              <path id="Trazado_901660" data-name="Trazado 901660" d="M424.816,140.066c-9.963-9.6-20.1-4.213-23.979,1.048l17.384.206c.76-.013,1.19.778,1.026,2.225,0,0-6.026,10.807,2.281,16.873,2.972-1.138,3.576-6.082,4.735-8.955C427.989,147.182,430.17,140.882,424.816,140.066Z" transform="translate(-398.88 -134.774)" fill="#263238"/>
              <path id="Trazado_901661" data-name="Trazado 901661" d="M427.684,158.951a7.7,7.7,0,0,1-4.234,4.161c-2.542.994-3.214-1.748-2.757-4.3.412-2.3,1.337-5.054,4.007-4.959A3.542,3.542,0,0,1,427.684,158.951Z" transform="translate(-401.028 -136.852)" fill="#e9b376"/>
              <path id="Trazado_901662" data-name="Trazado 901662" d="M411.22,153.15c-.074.835-.577,1.469-1.123,1.415s-.929-.774-.855-1.609.577-1.469,1.122-1.415S411.293,152.315,411.22,153.15Z" transform="translate(-399.795 -136.6)" fill="#263238"/>
              <path id="Trazado_901663" data-name="Trazado 901663" d="M402.473,152.709c-.074.835-.577,1.469-1.122,1.415s-.929-.774-.855-1.609.577-1.469,1.122-1.414S402.547,151.874,402.473,152.709Z" transform="translate(-398.842 -136.552)" fill="#263238"/>
              <path id="Trazado_901664" data-name="Trazado 901664" d="M405.612,152.222s-3.01,3.915-4.006,5.53a3.961,3.961,0,0,0,3.114.846Z" transform="translate(-398.964 -136.674)" fill="#d58745"/>
              <path id="Trazado_901665" data-name="Trazado 901665" d="M414.515,148.673a.4.4,0,0,1-.388-.09,3.159,3.159,0,0,0-2.708-.874.4.4,0,0,1-.477-.289.389.389,0,0,1,.286-.472,3.935,3.935,0,0,1,3.434,1.067.389.389,0,0,1,.021.552A.366.366,0,0,1,414.515,148.673Z" transform="translate(-399.98 -136.093)" fill="#263238"/>
              <path id="Trazado_901666" data-name="Trazado 901666" d="M407.908,162.467a4.886,4.886,0,0,0,3.6-1.369" transform="translate(-399.65 -137.641)" fill="none" stroke="#263238" stroke-linecap="round" stroke-linejoin="round" stroke-miterlimit="10" stroke-width="0.75"/>
            </g>
            <path id="Trazado_901667" data-name="Trazado 901667" d="M426.205,156.773a1.492,1.492,0,0,0-1.524-.665,2.575,2.575,0,0,0-1.483.9,4.1,4.1,0,0,0-.936,1.881" transform="translate(-398.467 -133.49)" fill="none" stroke="#000" stroke-linecap="round" stroke-linejoin="round" stroke-miterlimit="10" stroke-width="0.5" opacity="0.2"/>
            <path id="Trazado_901668" data-name="Trazado 901668" d="M399.326,147.966a.4.4,0,0,1-.136-.682,3.865,3.865,0,0,1,3.469-.817.4.4,0,0,1,.257.495.388.388,0,0,1-.487.256,3.013,3.013,0,0,0-2.74.676A.382.382,0,0,1,399.326,147.966Z" transform="translate(-395.939 -132.429)" fill="#263238"/>
            <path id="Trazado_901669" data-name="Trazado 901669" d="M429.531,149.316l-9.974.245a20.878,20.878,0,0,1,1.07-3.373H430.2A14.364,14.364,0,0,1,429.531,149.316Z" transform="translate(-398.172 -132.412)" fill="#fff" opacity="0.3"/>
            <g id="Grupo_1106856" data-name="Grupo 1106856" transform="translate(15.26 25.175)" opacity="0.2">
              <path id="Trazado_901670" data-name="Trazado 901670" d="M412.684,158.98a3.988,3.988,0,0,1,1.039,2.916,2.618,2.618,0,0,0,.27-1.724C413.778,159.285,412.684,158.98,412.684,158.98Z" transform="translate(-412.684 -158.98)"/>
            </g>
          </g>
          <g id="Grupo_1106858" data-name="Grupo 1106858" transform="translate(38.381 40.348)">
            <path id="Trazado_901671" data-name="Trazado 901671" d="M407.938,176.831l-5.143,4.627,8.587,10.412,12.4-10.458-3.677-5.405-7.753,6.476Z" transform="translate(-402.795 -176.007)" fill="#407bff"/>
            <path id="Trazado_901672" data-name="Trazado 901672" d="M407.938,176.831l-5.143,4.627,8.587,10.412,12.4-10.458-3.677-5.405-7.753,6.476Z" transform="translate(-402.795 -176.007)" fill="#fff" opacity="0.8"/>
          </g>
        </g>
        <path id="Trazado_901673" data-name="Trazado 901673" d="M434.828,243.71v8.939s-19.776-5.773-31.427-16.19c-8.3-7.417-7-10.542-7-10.542l9.4.907Z" transform="translate(-336.98 -141.095)" opacity="0.2"/>
        <path id="Trazado_901674" data-name="Trazado 901674" d="M432.569,208.072l1.264,21.013c3.509,2.232,5.832-.862,6.366-4.059v-6.05Z" transform="translate(-340.927 -139.151)" opacity="0.2"/>
        <path id="Trazado_901675" data-name="Trazado 901675" d="M429.286,206.8s6.354,16.58,4.766,17.585-27.43-3.889-27.43-3.889l-3.993,5.728c.858,3.767,44.573,27.494,48.142,7.646,1.859-10.331-5.34-34.729-8.06-42.31-.761-2.123-4.593-6.656-6.751-7.31a4.821,4.821,0,0,0-2.229-.2C425.472,185.6,429.286,206.8,429.286,206.8Z" transform="translate(-337.666 -136.529)" fill="#407bff"/>
        <path id="Trazado_901676" data-name="Trazado 901676" d="M435.525,231.609" transform="translate(-341.249 -141.714)" fill="#976827"/>
        <path id="Trazado_901677" data-name="Trazado 901677" d="M400.648,229.772c-2.995.237-3.1-4.275-4.659-4.452a8.908,8.908,0,0,1-2.632-.67s.986,2.712,0,2.494-4.151-.375-4.93-2.958,2.041-8.1,2.682-8.874,4.013-.533,4.013-.533-3.629-.937-5.62-1.213-2.369-2.552.409-2.049c1.142.207,10.15.274,11.126,1.2s4.595,10.035,4.595,10.035C406.974,223.524,403.567,231.162,400.648,229.772Z" transform="translate(-336.064 -139.519)" fill="#e9b376"/>
        <g id="Grupo_1106860" data-name="Grupo 1106860" transform="translate(53.011 74.952)" opacity="0.3">
          <path id="Trazado_901678" data-name="Trazado 901678" d="M396.015,214.865a10.394,10.394,0,0,1,2.761.177.256.256,0,0,1-.089.5,10.122,10.122,0,0,0-2.613-.177C395.749,215.368,395.689,214.885,396.015,214.865Z" transform="translate(-389.933 -214.84)"/>
          <path id="Trazado_901679" data-name="Trazado 901679" d="M390.78,217.822c-.286.148-.582-.266-.3-.414,1.686-.9,3.461-.395,5.167.177.306.1.089.562-.217.463C393.935,217.546,392.278,217.063,390.78,217.822Z" transform="translate(-389.341 -215.066)"/>
          <path id="Trazado_901680" data-name="Trazado 901680" d="M389.333,220.346a5.025,5.025,0,0,1,4.772-.207.256.256,0,0,1-.207.463,4.546,4.546,0,0,0-4.279.158C389.343,220.928,389.047,220.514,389.333,220.346Z" transform="translate(-389.216 -215.362)"/>
          <path id="Trazado_901681" data-name="Trazado 901681" d="M391.857,224.533a4.092,4.092,0,0,1-.307-.833c-.069-.315.4-.493.483-.177a3.578,3.578,0,0,0,1.666,2.317c.286.158.069.621-.207.463h.029a4.1,4.1,0,0,1-1.329-1.215c-.034,0-.063.018-.1,0a1.371,1.371,0,0,0-1.489.395c-.217.247-.6-.079-.384-.325A1.879,1.879,0,0,1,391.857,224.533Z" transform="translate(-389.318 -215.768)"/>
        </g>
      </g>
    </g>
  </g>
</svg>
