<svg xmlns="http://www.w3.org/2000/svg" width="43.401" height="33.756" viewBox="0 0 43.401 33.756">
  <path id="check-to-slot-solid" d="M7.234,35.617A3.618,3.618,0,0,1,10.85,32h21.7a3.618,3.618,0,0,1,3.617,3.617V58.523H7.234Zm23.584,3.541a1.8,1.8,0,0,0-2.554,0L19.9,47.522l-3.541-3.541A1.806,1.806,0,1,0,13.8,46.535l4.822,4.822a1.8,1.8,0,0,0,2.554,0l9.637-9.637a1.8,1.8,0,0,0,0-2.554ZM0,54.906a3.618,3.618,0,0,1,3.617-3.617H4.822v9.645H38.579V51.289h1.206A3.618,3.618,0,0,1,43.4,54.906V62.14a3.618,3.618,0,0,1-3.617,3.617H3.617A3.618,3.618,0,0,1,0,62.14Z" transform="translate(0 -32)" fill="#00ffdf"/>
</svg>
